<?xml version="1.0" encoding="UTF-8"?>
<svg version="1.1" viewBox="0 0 1600 1600" width="1280" height="1280" xmlns="http://www.w3.org/2000/svg">
<path transform="translate(519 304)" d="m0 0h2.66c2.93-0.01 5.86-0.01 8.79-0 2.12-0 4.24-0.01 6.35-0.01h17.3 14.7c13.1 0 26.2 0 39.3 0.01h4.08 2.05c6.8 0 13.6 0 20.4 0.01 64.2 0.01 128 0.06 193 0.54 2.14 0.01 4.27 0.03 6.4 0.04 7.93 0.06 15.9 0.12 23.8 0.19 2.3 0.02 4.61 0.04 6.91 0.06 30.8 0.24 30.8 0.24 36.5 3.29 2.37 0.5 4.74 0.96 7.13 1.37 6.37 1.2 12 3.02 17.9 5.63 1.32 0.53 2.65 1.07 3.97 1.6 13.4 5.38 25.8 11.6 38 19.4 1.46 0.88 1.46 0.88 2.95 1.78 6.19 3.79 12.1 7.88 17 13.2v2c0.6 0.27 1.19 0.54 1.8 0.81 2.2 1.19 3.65 2.38 5.41 4.14 0.6 0.59 1.2 1.18 1.82 1.8 0.64 0.64 1.27 1.28 1.93 1.93l2 2c1.39 1.39 2.78 2.78 4.16 4.18 2.13 2.14 4.27 4.27 6.41 6.39 1.35 1.36 2.7 2.71 4.05 4.06 0.64 0.64 1.29 1.28 1.95 1.94 4.47 4.52 4.47 4.52 4.47 6.75 0.58 0.22 1.16 0.45 1.75 0.68 2.85 1.66 4.19 3.74 6.25 6.32 1.11 1 2.24 1.97 3.38 2.93 4.22 3.62 8.18 7.47 12.1 11.4 0.64 0.62 1.27 1.25 1.93 1.89l1.79 1.79c0.54 0.53 1.07 1.06 1.62 1.61 1.16 1.4 1.16 1.4 1.16 3.4 0.93 0.37 0.93 0.37 1.88 0.75 2.53 1.48 2.84 2.68 4.12 5.25 1.33 0.68 2.66 1.35 4 2 4.78 4.33 4.78 4.33 6 8 0.96 0.46 0.96 0.46 1.94 0.93 2.56 1.32 2.8 2.55 4.06 5.07 0.61 0.28 1.21 0.57 1.83 0.86 2.65 1.39 4.01 3.03 5.92 5.32 2.47 2.97 5.04 5.55 7.96 8.05 3.93 3.41 7.65 6.98 11.3 10.7 0.65 0.65 1.31 1.3 1.98 1.97 2.13 2.12 4.26 4.25 6.39 6.38 1.5 1.49 3 2.99 4.49 4.48 3.13 3.12 6.25 6.24 9.37 9.36 3.99 3.99 7.98 7.97 12 11.9 3.09 3.08 6.18 6.16 9.26 9.25 1.47 1.47 2.94 2.93 4.41 4.4 14.5 14.4 14.5 14.4 20.1 22.3 0.72 0.94 1.45 1.89 2.19 2.86 12.7 17.1 12.7 17.1 13.8 25.1h2c2.25 4.92 4.37 9.84 6.23 14.9 0.85 2.3 1.78 4.57 2.71 6.84 7.39 18.5 10.7 36.4 12.1 56.2h1c0.03 5.51 0.05 11 0.06 16.6 0 1.88 0.01 3.76 0.02 5.63 0.01 2.7 0.02 5.39 0.02 8.09 0.01 0.84 0.01 1.69 0.02 2.55 0 5.95 0 5.95-1.12 8.18-0.09 3.1-0.13 6.19-0.12 9.29v2.98c0 3.32 0 6.65 0.01 9.97v7.18c0 5.22 0 10.4 0.01 15.7 0 7.77 0.01 15.5 0.01 23.3 0 13.1 0.01 26.1 0.02 39.2 0.01 17.9 0.02 35.7 0.02 53.6 0 8.32 0 16.6 0.01 25v2.52c0 19.8 0.01 39.7 0.02 59.5v2.63c0.01 14.1 0.02 28.2 0.02 42.3 0.01 13.2 0.02 26.3 0.02 39.5v2.62c0.01 19.8 0.02 39.6 0.03 59.3v2.52c0 8.31 0 16.6 0.01 24.9 0 17.8 0.01 35.7 0.02 53.5 0.01 13 0.01 26 0.02 39 0 7.72 0 15.4 0.01 23.2 0.01 5.78 0.01 11.6 0.01 17.3v6.99c0.02 10.6-0.02 21.1-0.52 31.6-0.03 0.76-0.07 1.53-0.1 2.31-0.34 6.28-1.78 11.4-4.5 17-0.46 1-0.91 2.01-1.38 3.04-2.94 6.21-6.21 11.7-10.6 17-0.92 1.12-0.92 1.12-1.86 2.26-3.52 4.17-3.52 4.17-5.14 5.74h-2c-0.24 0.6-0.48 1.19-0.74 1.81-2.29 3.97-6.43 5.84-10.3 8.19-1.58 1.02-1.58 1.02-3.19 2.06-16.8 9.29-34.7 9.25-53.3 9.35-2.37 0.01-4.74 0.03-7.11 0.05-6.42 0.06-12.8 0.09-19.3 0.13-4.06 0.02-8.12 0.05-12.2 0.08-54.9 0.39-110 0.48-165 0.46h-27.3-2.01-8.08-74.4c-21.9-0.01-43.8-0.01-65.6 0h-74.7-7.97-3.96-27.3c-11.1 0.01-22.1 0.01-33.2 0h-16.8c-38.6 0.02-38.6 0.02-55.9-0.41-1.93-0.04-3.85-0.08-5.78-0.11-21.8-0.65-40.4-8.66-55.7-24.2-3.89-4.24-7.46-8.48-10.4-13.4-0.48-0.74-0.96-1.48-1.46-2.24-3.21-5.05-5.42-9.73-6.9-15.5-0.55-2.22-0.55-2.22-1.65-4.07-8.07-17.6-3.14-46.1-3.12-65.3v-12.7c-0.01-7.05 0-14.1 0-21.2 0.01-8.15 0.01-16.3 0-24.5v-21.1-12.6c-0.01-3.92 0-7.84 0-11.8v-4.32c0-1.95 0-3.91 0.01-5.87v-3.32c0.12-2.57 0.12-2.57 1.12-4.57h-2l1-3-1-1c-0.1-2.34-0.13-4.64-0.12-6.98 0-0.74-0.01-1.48-0.01-2.25 0-2.52 0-5.03 0.01-7.55-0.01-1.81-0.01-3.62-0.01-5.44v-15-16.2c-0.01-10.6-0.01-21.1 0-31.7v-25.7-3.69-7.42c-0.01-23.2 0-46.4 0-69.7 0.01-20 0.01-39.9 0-59.9 0-23.1-0.01-46.3 0-69.4v-7.4-3.67-25.7c-0.01-10.4-0.01-20.9 0-31.3v-16-14.6-5.32c0-2.39 0-4.78 0.01-7.17-0.01-0.7-0.01-1.4-0.01-2.12 0.02-4.74 0.02-4.74 1.13-5.85 0.13-2.18 0.18-4.36 0.21-6.54 0.01-0.69 0.02-1.37 0.03-2.07 0.03-2.27 0.05-4.54 0.08-6.8l0.06-4.71c0.06-4.13 0.11-8.27 0.15-12.4 0.05-4.22 0.11-8.43 0.17-12.6 0.1-8.28 0.2-16.6 0.3-24.8h-2l2-15h-2v-3h2v-2h-2v-11-5.18c-0.02-14.9-0.04-29.8-0.05-44.7 0-7.66-0.01-15.3-0.02-23-0.01-6.68-0.02-13.4-0.02-20 0-3.54-0.01-7.07-0.01-10.6-0.01-3.94-0.01-7.87-0.01-11.8 0-1.18-0.01-2.36-0.01-3.57v-3.23-2.82c0.12-2.1 0.12-2.1 1.12-3.1 0.12-1.62 0.17-3.24 0.19-4.86 0.02-1.03 0.04-2.07 0.05-3.13 0.02-1.13 0.03-2.26 0.04-3.42 0.02-1.14 0.04-2.29 0.06-3.47 0.06-3.69 0.11-7.38 0.16-11.1 0.07-4.84 0.14-9.69 0.22-14.5 0.01-1.12 0.03-2.25 0.04-3.4 0.02-1.04 0.04-2.08 0.05-3.15 0.02-0.91 0.03-1.83 0.04-2.78 0.15-2.2 0.15-2.2 1.15-4.2 0.15-1.44 0.28-2.88 0.38-4.32 0.41-4 1.31-6.34 3.62-9.68 2.01-3.76 3.82-7.54 5.38-11.5 2.01-4.33 4.65-7.79 7.62-11.5 0.7-0.91 1.4-1.82 2.13-2.75 3.03-3.65 5.6-6.19 9.87-8.25l1-2c2.31-1.41 4.63-2.71 7-4 0.87-0.49 1.74-0.99 2.63-1.49 5.36-3.01 10.6-5.47 16.4-7.51l1-1c2.19-0.22 4.37-0.37 6.56-0.5 3.74-0.23 7.41-0.5 11.1-1.01 4.46-0.57 8.86-0.63 13.4-0.62zm-39 49.1c-1.6 2.25-3.11 4.53-4.57 6.88-1.43 2.12-1.43 2.12-3.01 3.61-1.8 1.91-2.3 3.63-3.04 6.13-1.29 4.29-1.29 4.29-2.38 5.38-0.24 2.53-0.42 5.04-0.55 7.58-0.04 0.77-0.09 1.54-0.13 2.33-0.39 7.57-0.46 15.1-0.44 22.7 0 1.49-0.01 2.99-0.01 4.49v12.2c0.01 4.45 0 8.9 0 13.3v23.4 34.7c-0.01 20.7-0.01 41.3 0 62v54.3 3.63 14.6c-0.01 45.7 0 91.4 0 137 0.01 40.6 0.01 81.2 0 122 0 45.6-0.01 91.2 0 137v14.6 3.63 54.2c-0.01 20.6-0.01 41.1 0 61.7v34.5 23c0 4.38 0.01 8.76 0 13.1 0 3.99 0 7.98 0.01 12 0 1.43 0 2.86-0.01 4.29-0.24 24-0.24 24 10.1 45.1 11.2 10.4 24.1 15.5 39.3 15.5 1.32 0.02 2.64 0.03 4 0.05 3.68 0.04 7.35 0.06 11 0.08 3.22 0.01 6.44 0.04 9.65 0.07 11 0.1 22.1 0.15 33.1 0.19 3.04 0.01 6.08 0.02 9.12 0.03 31.5 0.11 63.1 0.12 94.6 0.11h27.7 2.02 8.13c25.2 0.01 50.4 0 75.6 0 22.2-0.01 44.4-0.01 66.5 0h75.5 8.11 2.01 29.6c66 0.06 66 0.06 132-0.41 2.88-0.03 5.76-0.06 8.65-0.08 3.83-0.03 7.67-0.08 11.5-0.14 1.09 0 2.18-0.01 3.29-0.01 6.37-0.13 11.6-1.07 17.5-3.49 0.86-0.35 1.71-0.7 2.6-1.07 0.63-0.3 1.25-0.61 1.9-0.93 0.65-0.31 1.3-0.62 1.97-0.94 1.87-1.07 1.87-1.07 2.53-4.06 1.34-0.67 2.67-1.34 4-2l1-3c0.6-0.27 1.2-0.54 1.81-0.82 5.57-3.02 7.49-9.77 9.34-15.5 1.74-7.56 1.42-15.3 1.4-23l0.03-5.88c0.03-5.41 0.03-10.8 0.03-16.2 0-5.93 0.03-11.8 0.05-17.8 0.04-11.1 0.06-22.2 0.07-33.3 0.02-10.4 0.03-20.8 0.06-31.2 0.01-1.41 0.01-2.82 0.01-4.23 0.01-2.13 0.01-4.27 0.02-6.4 0.09-34.9 0.13-69.8 0.16-105 0.02-14.1 0.03-28.2 0.05-42.3 0.01-1.99 0.01-3.98 0.01-5.97v-3.01c0.07-47.5 0.11-95 0.14-143 0-11.3 0.01-22.6 0.02-33.9v-3.08c0.01-2.05 0.01-4.1 0.01-6.14 0.02-18.7 0.02-37.4 0.02-56.2 0-9.12 0-18.2 0.01-27.4 0.01-7.64 0.02-15.3 0.01-22.9v-11.6c0.04-18.8-0.61-37.3-2.25-56h-1c-0.2-1.05-0.41-2.1-0.62-3.18-0.27-1.38-0.54-2.76-0.82-4.14-0.13-0.69-0.26-1.38-0.4-2.09-0.59-2.94-1.21-5.75-2.16-8.59h-2c-0.15-1.86-0.15-1.86-0.31-3.75-0.43-3.53-1.17-5.62-3.69-8.25-1.05 0.47-2.1 0.95-3.19 1.43-11.3 5.11-26.4 3.72-38.5 3.7h-4.2c-3.76 0.01-7.52 0-11.3 0h-11.9-19.9c-7.65-0.01-15.3-0.01-22.9 0h-19.8-11.8c-3.69 0.01-7.38 0-11.1 0h-5.94c-21.7-0.05-21.7-0.05-31.5-4.13-1.04-0.44-2.09-0.87-3.16-1.32-6.61-2.9-12.4-5.97-17.8-10.7-0.8-0.68-1.6-1.36-2.42-2.07-8.62-7.53-15.4-14.6-20.3-25.1-1.06-2.29-2.22-4.4-3.5-6.57-5.3-10.8-5.25-24.3-5.2-36.1 0-1.51-0.01-3.02-0.01-4.53-0.02-4.04-0.01-8.09 0-12.1 0.01-4.26 0-8.53 0-12.8-0.01-7.15 0-14.3 0.01-21.4 0.02-8.24 0.01-16.5 0-24.7-0.02-7.11-0.02-14.2-0.01-21.3 0-4.24 0-8.47-0.01-12.7-0.01-3.97 0-7.95 0.02-11.9 0-1.45 0-2.9-0.01-4.34-0.03-9.29 0.14-18.9 4.53-27.4 1.21-2.55 0.61-4.19-0.13-6.84-7.77-2.73-15.6-5.03-23.6-7.07-3.45-0.93-3.45-0.93-6.06-1.95-4.39-1.27-8.53-1.45-13.1-1.6-1-0.04-1.99-0.07-3.02-0.11-14.2-0.48-28.4-0.42-42.6-0.42-4.3 0-8.59 0-12.9-0.01-8.38-0.01-16.8-0.01-25.1-0.01-6.81 0-13.6 0-20.4-0.01-19.4 0-38.7-0.01-58-0.01h-3.15-3.15c-16.9 0-33.8-0.01-50.7-0.02-17.4-0.02-34.8-0.02-52.2-0.02-9.75 0-19.5 0-29.2-0.02-8.29 0-16.6-0.01-24.9 0h-12.7c-3.87-0.01-7.74-0.01-11.6 0-1.4 0-2.79 0-4.19-0.01-15.2-0.06-31 2.14-42.4 13.3zm-47 8 1 3zm518 11c-0.74 9.64-1.14 19.2-1.13 28.9v3.92c-0.01 3.5-0.01 7 0 10.5v11.1c-0.01 6.18 0 12.4 0 18.6 0.01 7.12 0.01 14.2 0 21.4v18.4 11c-0.01 4.07 0 8.15 0 12.2v3.63c-0.18 12.4-0.18 12.4 3.69 24 0.46 0.85 0.91 1.69 1.38 2.57 0.35 0.61 0.7 1.23 1.06 1.87h2c0.06 0.55 0.13 1.11 0.19 1.68 1.15 3.29 3.26 5.08 5.81 7.32 1.09 0.97 1.09 0.97 2.21 1.95 9.07 7.7 17.9 11.2 29.8 11.2 1.19 0.01 2.38 0.01 3.61 0.01h3.92 4.16c3.76 0.01 7.51 0 11.3 0h11.8 19.8c7.64-0.01 15.3-0.01 22.9 0h19.7 11.8c3.69 0.01 7.37 0 11.1 0h5.96c6.08-0.01 11.9-0.19 17.9-1.13-1.31-3.67-2.88-6.41-5.31-9.44-0.63-0.78-1.25-1.56-1.9-2.36-0.88-1.09-0.88-1.09-1.79-2.2-1.2-1.55-1.2-1.55-2.44-3.13-2.7-3.03-5.6-5.57-8.69-8.19-2.24-2.02-4.01-4.32-5.87-6.68h-2c-0.39-0.91-0.39-0.91-0.8-1.83-1.26-2.28-2.35-3.34-4.39-4.92-3.47-2.85-6.28-6.02-9.18-9.44-2-2.23-4.27-3.97-6.63-5.81-0.72-0.91-1.44-1.82-2.19-2.75-0.59-0.75-1.19-1.49-1.81-2.25h-2v-2c-1.55-1.54-1.55-1.54-3.56-3.13-2.91-2.46-5.48-4.96-7.94-7.87-2.93-3.47-6.13-6.35-9.59-9.28-2.39-2.16-4.36-4.55-6.41-7.03-2.08-2.35-4.43-4.29-6.84-6.29-3.36-2.84-6.27-5.92-9.03-9.34-2.37-2.91-5.05-5.23-7.93-7.63-3.32-2.81-6.21-5.81-8.89-9.25-0.59-0.72-1.19-1.44-1.81-2.18h-2c-0.2-0.56-0.41-1.12-0.62-1.69-1.55-2.6-3.45-4.16-5.8-6.04-3.53-2.86-6.5-6.16-9.39-9.65-2.09-2.47-4.24-4.61-6.72-6.69-5.31-4.59-10.2-9.57-15.2-14.6-0.92-0.93-1.84-1.85-2.79-2.81-1.72-1.73-3.44-3.45-5.15-5.18-0.78-0.79-1.56-1.57-2.37-2.38-0.87-0.89-1.74-1.77-2.64-2.68-2.31-2.35-2.31-2.35-4.86-4.32-2.7-2.17-5.05-4.56-7.5-7-3.04-2.66-3.04-2.66-7-3zm-522 53v123h1v-123h-1zm0 130 1 3zm0 4 1 3zm0 21 1 2zm0 74v438h1v-438h-1z" fill="#2F3235"/>
<path transform="translate(808 427)" d="m0 0c2.71 1.84 5.09 3.84 7.52 6.04 1.25 1.13 1.25 1.13 2.53 2.28 14.9 14.6 18.3 37.4 19.4 57.4h1c0.13 26.1 0 51.4-3.97 77.3-0.15 0.99-0.3 1.97-0.45 2.98-0.59 2.76-1.49 5.15-2.58 7.75-0.36 1.72-0.67 3.45-0.94 5.19-0.76 4.45-1.85 8.64-3.21 12.9-1.07 3.61-1.96 7.27-2.85 10.9-1.6 6.5-3.32 12.9-5.89 19.1-1.15 2.82-2.1 5.29-2.18 8.36 1.38 3.24 3.34 5.76 5.52 8.51 1.55 1.99 1.55 1.99 3.61 5.18 1.84 2.85 1.84 2.85 4.25 5.12 2.93 2.93 5.34 6.05 7.84 9.34 2.37 3.02 4.94 5.82 7.56 8.62 1.29 1.73 1.29 1.73 1.29 4.73 0.61 0.26 1.21 0.53 1.84 0.8 2.31 1.28 3.18 2.24 4.66 4.39 2.98 4.14 6.11 8.14 9.31 12.1 0.52 0.65 1.04 1.3 1.57 1.96 3.87 4.81 7.76 9.6 11.7 14.4 0.64 0.78 1.28 1.56 1.94 2.37 0.74 0.88 1.48 1.77 2.25 2.68 1.75 2.32 1.75 2.32 1.75 4.32h2c3 3.46 3 3.46 3 6h2c0.24 0.78 0.49 1.57 0.75 2.37 0.97 2.73 0.97 2.73 3.16 3.58 2.4 1.21 3.22 2.28 4.71 4.49 3.41 4.78 7.37 8.97 11.4 13.2 1.98 2.32 1.98 2.32 1.98 4.32 2.81 0.79 5.34 1.14 8.26 1.19 1.26 0.02 1.26 0.02 2.54 0.05 0.9 0.01 1.81 0.03 2.74 0.04 0.94 0.02 1.89 0.04 2.86 0.05 2.03 0.04 4.05 0.08 6.08 0.11 5.23 0.09 10.5 0.2 15.7 0.31 1.03 0.02 2.05 0.04 3.11 0.07 8.13 0.16 16.3 0.35 24.4 0.62 1.04 0.02 2.08 0.05 3.14 0.08 1.39 0.05 1.39 0.05 2.81 0.1 0.78 0.02 1.57 0.05 2.37 0.07 2 0.31 2 0.31 5 2.31 2.3 0.25 4.62 0.4 6.93 0.5 16 0.82 16 0.82 22.5 3.49 3.09 1.2 6.07 1.7 9.34 2.26 14.8 2.78 28 8.77 41.2 15.8 1.33 0.67 2.66 1.34 4 2v2c0.68 0.2 1.36 0.41 2.06 0.62 11.8 5.51 18.9 18 23.9 29.4 1.25 3.75 1.18 7.27 1.18 11.2 0.02 0.73 0.03 1.46 0.04 2.21 0.03 11.1-3.66 20-10.9 28.4-1.36 1.25-1.36 1.25-3.36 1.25-0.25 0.64-0.5 1.28-0.75 1.94-1.25 2.06-1.25 2.06-3.32 2.62-0.63 0.14-1.27 0.29-1.93 0.44l-1 3c-13.9 7.42-27.7 10.2-43.2 10.2-1.07 0.01-2.14 0.02-3.24 0.03-7.06 0.02-13.6-0.7-20.5-2.22-1.14-0.25-2.28-0.49-3.46-0.75-1.38-0.34-1.38-0.34-2.79-0.69-1.4-0.34-1.4-0.34-2.83-0.68-6.23-1.88-12-4.84-17.8-7.76-0.7-0.35-1.4-0.7-2.13-1.07-13.8-6.99-25.9-15.3-38-25-1.06-0.85-1.06-0.85-2.13-1.71-7.97-6.4-15.8-12.8-22.8-20.2-2.23-2.23-4.6-4.14-7.08-6.08-2.52-2.4-4.81-4.75-6.94-7.5-4.22-5.47-4.22-5.47-10.4-7.74-0.87 0.02-1.74 0.04-2.64 0.06-0.98 0.02-1.96 0.04-2.97 0.06-17.7 0.68-35.2 2.49-52.8 4.62-1.34 0.16-1.34 0.16-2.71 0.32l-7.74 0.96c-0.76 0.09-1.52 0.18-2.31 0.28-4.55 0.58-8.98 1.43-13.4 2.46-2.9 0.66-5.82 1.16-8.76 1.66-1.18 0.21-2.37 0.41-3.6 0.62-2.45 0.42-4.9 0.84-7.35 1.25-6.23 1.09-12.2 2.36-18.2 4.28-2.89 0.9-5.8 1.51-8.77 2.11-10.7 2.22-21.2 4.54-31.4 8.56-0.95 0.12-1.9 0.25-2.88 0.37-0.7 0.21-1.4 0.42-2.12 0.63-1.18 2.15-1.18 2.15-2 5-2.55 5.52-5.52 10.8-8.5 16.1-0.38 0.68-0.76 1.36-1.15 2.05-2.29 4.07-4.76 7.95-7.35 11.8-0.96 1.74-1.9 3.49-2.82 5.25-2.52 4.69-5.36 8.97-8.46 13.3-2.25 3.21-4.22 6.54-6.21 9.91-5.16 8.69-10.9 16.9-16.9 25-2.2 2.98-4.35 5.98-6.46 9.03-8.24 11.8-17.4 23-27.2 33.6-0.54 0.59-1.08 1.17-1.64 1.78-1.36 1.22-1.36 1.22-3.36 1.22-0.37 0.86-0.37 0.86-0.75 1.75-1.45 2.6-2.99 4.33-5.25 6.25h-3l-1 3c-2.34 1.92-5.01 3.35-7.63 4.87-1.14 0.67-1.14 0.67-2.3 1.35-15.7 8.89-34.3 13.1-52.1 8.28-6.36-2.25-11.1-5.92-16-10.5-0.59-0.52-1.17-1.03-1.78-1.56-1.22-1.44-1.22-1.44-1.22-4.44h-2c-0.82-1.56-1.63-3.12-2.44-4.69-0.45-0.87-0.91-1.74-1.37-2.64-4.78-10.7-3.01-25.9 0.81-36.7 1.51-3.76 3.2-7.38 5-11 0.37-0.8 0.73-1.6 1.11-2.42 2.48-5.24 5.39-10.1 8.51-15 0.58-0.91 0.58-0.91 1.17-1.83 1.86-2.86 3.7-5.41 6.21-7.73 1.03-1.16 2.05-2.33 3.06-3.5 3.8-4.37 7.69-8.64 11.6-12.9 1.83-2.03 3.53-4.09 5.21-6.23 3.51-4.18 8.02-7.19 12.4-10.4 2.85-2.12 5.09-4.33 7.46-6.95 2.24-2.06 4.53-3.42 7.2-4.87 2.43-1.41 4.69-3 6.98-4.63 7.1-5.03 14.4-9.4 22.1-13.6 0.9-0.5 1.8-1 2.73-1.51 12.8-7.01 25.8-13.3 39.4-18.4 2.24-0.85 4.43-1.74 6.62-2.72 3.33-1.41 6.68-2.54 10.1-3.63 1.05-0.37 1.05-0.37 2.12-0.74 0.99-0.31 0.99-0.31 2-0.62 3.21-2.22 4.55-5.6 6.25-9.01 0.58-1.13 0.58-1.13 1.17-2.28 1.2-2.36 2.39-4.72 3.58-7.09 0.74-1.47 1.48-2.94 2.22-4.4 1.63-3.24 3.25-6.49 4.85-9.74 0.99-1.99 1.98-3.97 2.97-5.95 0.33-0.67 0.67-1.34 1.01-2.02 0.82-1.64 1.65-3.28 2.48-4.92 1.71-3.47 3.34-6.96 4.97-10.5 2.1-4.54 4.24-9.04 6.5-13.5 1.16-2.31 2.33-4.63 3.5-6.94 0.88-1.75 0.88-1.75 1.78-3.53 1.69-3.47 3.21-6.98 4.72-10.5 0.72-1.59 1.45-3.17 2.18-4.75 3.48-7.61 6.68-15.3 9.9-23.1 0.78-1.85 1.55-3.7 2.33-5.56 0.79-1.88 1.58-3.77 2.36-5.66 0.94-2.27 1.89-4.53 2.86-6.79l1.68-3.99c0.51-1.21 1.02-2.41 1.55-3.65 1.46-4.56 2.16-8.11 0.25-12.6-1.21-2.33-2.51-4.58-3.86-6.83-0.9-1.53-1.79-3.06-2.67-4.59-0.44-0.75-0.88-1.49-1.32-2.26-24.4-42.9-36.5-102-25-150 2.1-7.57 5.31-14.7 8.76-21.7 0.7-1.53 0.7-1.53 1.42-3.08 1.96-3.63 4.29-6.8 6.83-10 0.68-0.91 0.68-0.91 1.37-1.84 11.5-14.8 35.5-19.3 51.9-10.7zm-25.5 37.7c-12.1 17.8-11.4 38.4-11 59 0.01 0.74 0.02 1.49 0.04 2.25 0.52 22.6 7.44 45.9 16 66.8h2c0.49 0.99 0.49 0.99 1 2 4.11-14.8 7.82-29.6 9.6-45 0.4-3.04 0.4-3.04 1.01-5.39 0.13-0.55 0.26-1.09 0.39-1.65l-1-1c0.24-2 0.48-3.99 0.72-5.98 0.6-6.61 0.52-13.3 0.53-19.9v-2.36c0-11.8-0.59-23.2-3.25-34.8-0.24-1.1-0.48-2.2-0.73-3.33-1.33-5.49-3.22-9.93-6.27-14.7-4.66-0.52-5.97 0.56-9 4zm-47 31 1 2zm56 94 1 2zm-18 53 1 2zm27 36c-2.75 1.37-2.93 2.81-4.07 5.64-0.4 0.98-0.8 1.96-1.21 2.96-0.42 1.06-0.85 2.12-1.29 3.21-3.27 8.02-6.61 16-10.2 23.9-0.56 1.22-0.56 1.22-1.12 2.46-1.65 3.64-3.32 7.26-5.03 10.9-0.55 1.17-1.1 2.34-1.67 3.54-0.47 0.99-0.95 1.98-1.44 3-1.18 2.46-1.18 2.46-0.99 5.44h-2c-0.26 0.66-0.51 1.33-0.77 2.01-1.79 4.59-3.63 8.8-6.23 13-0.48 1.11-0.95 2.23-1.44 3.37-1.56 3.63-1.56 3.63-3.56 7-2.36 3.98-3.68 8.22-5 12.6 3.07 0.96 5.13 0.98 8.26 0.29 0.81-0.17 1.62-0.35 2.45-0.53 1.26-0.28 1.26-0.28 2.54-0.57 0.82-0.18 1.64-0.36 2.49-0.55 3.83-0.84 7.65-1.73 11.5-2.71 3.43-0.84 6.81-1.5 10.3-2.06 1.04-0.16 2.08-0.33 3.15-0.5 0.78-0.13 1.55-0.25 2.35-0.37v-1c0.78-0.09 1.57-0.17 2.38-0.26 3.58-0.39 7.16-0.79 10.7-1.18 1.24-0.13 2.48-0.27 3.75-0.41 1.2-0.13 2.4-0.26 3.63-0.4 1.1-0.12 2.2-0.24 3.34-0.36 3.07-0.38 6.11-0.86 9.16-1.39v-2c0.7 0.02 1.41 0.04 2.14 0.07 7.24 0.13 14.3-0.26 21.5-0.95 0.89-0.08 1.78-0.15 2.69-0.23 1.24-0.13 1.24-0.13 2.51-0.26 1.12-0.11 1.12-0.11 2.26-0.22 2.09-0.29 2.09-0.29 3.86-2.41-2.53-4.85-5.35-8.71-9-12.8-7.23-8.11-13.9-16.8-20.4-25.4-0.52-0.59-1.04-1.18-1.58-1.79h-2c-0.23-0.7-0.45-1.4-0.68-2.12-1.62-3.52-3.9-6.14-6.45-9.01-4.24-4.88-8.14-9.88-11.9-15.2-5.53-8.42-5.53-8.42-13-14.7zm177 81v1h5v-1h-5zm-24 34c-0.99 1.48-0.99 1.48-2 3 0.44 0.37 0.89 0.75 1.35 1.13 0.61 0.52 1.21 1.03 1.83 1.56 0.89 0.74 0.89 0.74 1.8 1.51 1.51 1.34 2.96 2.76 4.38 4.2 21.5 21.2 50.2 36.4 80.6 36.6 5.26-0.56 10.2-1.76 15-4v-2c0.89-0.16 0.89-0.16 1.81-0.31 2.58-0.81 3.62-1.49 5.19-3.69 0.49-5-1.07-7.29-4.11-11.1-3.18-3.23-6.84-4.99-10.9-6.92-0.72-0.4-1.43-0.8-2.17-1.21-5.37-2.92-10.9-4.98-16.7-6.92-0.72-0.24-1.44-0.48-2.18-0.73-2.3-0.75-4.62-1.46-6.94-2.14-0.87-0.26-1.73-0.51-2.62-0.77-9-2.46-18.1-3.4-27.3-4.36-1.57-0.17-3.14-0.34-4.71-0.51-8.77-0.95-17.6-1.75-26.4-2.36v-1c-2.92-0.25-2.92-0.25-6 0zm-303 65.4c-1.68 1.09-3.37 2.15-5.09 3.18-3.15 1.89-6.19 3.93-9.24 5.99-1.83 1.22-3.67 2.42-5.53 3.6-2.66 1.74-2.66 1.74-4.54 3.75-2.25 2.23-4.6 4.17-7.08 6.13-0.83 0.66-1.67 1.32-2.53 2-1.7 1.34-3.41 2.68-5.13 4-2.23 1.86-4.04 3.72-5.9 5.94-1.89 2.24-3.79 4.34-5.89 6.39-2.9 2.96-5.41 6.07-7.93 9.36-0.45 0.58-0.9 1.16-1.37 1.76-2.51 2.93-2.51 2.93-3.31 6.55h-2c-7.91 13.8-7.91 13.8-10 29 1.76 2.16 1.76 2.16 3.92 2.26 13.2-0.09 23.6-6.31 33.1-15.3v-2h2c1.43-1.34 1.43-1.34 2.93-3.19 0.63-0.73 1.25-1.47 1.89-2.22 0.72-0.86 1.44-1.71 2.18-2.59 0.84-0.97 1.68-1.94 2.55-2.94 6.23-7.17 11.9-14.6 17.3-22.4 1.78-2.54 3.63-5.03 5.47-7.53 5.82-7.02 5.82-7.02 8.69-15.1h2c0.28-0.52 0.56-1.05 0.84-1.58 2.96-5.43 6.17-10.6 9.51-15.8 1.99-3.15 3.84-6.35 5.65-9.6-8.32 0-15.7 5.92-22.5 10.4zm-110 66.6 1 2z" fill="#ED3C34"/>
<path transform="translate(1148 135)" d="m0 0c6.39-0.07 12.8-0.07 19.2-0.06h7.02 14.6c6.21 0.01 12.4 0 18.6 0h14.4 6.86c3.2-0.01 6.39 0 9.59 0h2.81c19.8 0.06 19.8 0.06 25.6 5.85 5.72 6.48 6.28 11.6 6.17 20 0.01 1.25 0.02 2.5 0.03 3.79 0.02 3.4 0.01 6.8-0.01 10.2-0.01 3.57 0.01 7.13 0.03 10.7 0.03 6.74 0.03 13.5 0.01 20.2-0.02 7.67 0 15.4 0.03 23 0.05 15.8 0.05 31.6 0.02 47.3 0.94 0.01 0.94 0.01 1.9 0.03 6.54 0.08 13.1 0.18 19.6 0.29 2.43 0.04 4.87 0.07 7.31 0.1 3.51 0.05 7.02 0.11 10.5 0.17 1.09 0.01 2.18 0.02 3.3 0.03 1.02 0.02 2.04 0.04 3.09 0.06 0.9 0.02 1.79 0.03 2.71 0.04 5.37 0.59 8.3 2.65 11.8 6.66 0.69 0.77 1.37 1.54 2.08 2.33 3.07 4.2 3.43 9.19 2.67 14.3-2 4.77-4.75 8.48-8.06 12.4-0.45 0.54-0.9 1.09-1.36 1.65-1.14 1.37-2.36 2.68-3.58 3.97h-2c-0.14 0.87-0.14 0.87-0.29 1.76-0.87 2.75-2.11 4.05-4.13 6.11-0.7 0.72-1.39 1.44-2.11 2.19-1.1 1.11-1.1 1.11-2.22 2.26-4.89 5-9.29 9.91-13.2 15.7-1.65 1.69-3.31 3.36-5 5-0.82 0.99-1.65 1.98-2.5 3-2.37 2.84-4.89 5.39-7.5 8-0.72 0.93-1.44 1.86-2.19 2.82-0.59 0.72-1.19 1.44-1.81 2.18h-2c-0.34 0.8-0.34 0.8-0.69 1.61-1.74 3.18-3.99 5.87-6.31 8.64-0.45 0.56-0.9 1.11-1.37 1.68-1.16 1.4-2.39 2.74-3.63 4.07h-2c-0.29 0.6-0.58 1.2-0.87 1.82-1.13 2.18-1.13 2.18-3.13 5.18h-2c-0.37 0.85-0.37 0.85-0.75 1.71-1.46 2.68-3.22 4.76-5.25 7.04-0.7 0.8-1.4 1.6-2.12 2.42-1.88 1.83-1.88 1.83-3.88 1.83-0.24 0.54-0.47 1.09-0.72 1.64-1.62 3-3.63 5.47-5.78 8.11-0.79 0.99-1.59 1.97-2.41 2.99-0.69 0.74-1.38 1.49-2.09 2.26h-2c-0.27 0.59-0.54 1.18-0.81 1.78-1.2 2.25-2.48 3.85-4.19 5.72-3.99 4.45-7.78 9.05-11.6 13.7-2.36 2.75-4.85 5.28-7.43 7.83-1.18 1.35-2.35 2.7-3.5 4.07-4.12 4.74-7.63 8.36-14.1 9.31-5.99 0.37-9.8 0-14.6-3.75-4.98-4.54-9.45-9.5-13.8-14.6-0.95-1.11-1.89-2.22-2.84-3.33-1.53-1.78-3.05-3.56-4.57-5.34-3.83-4.49-7.78-8.87-11.8-13.2-3.09-3.33-6.1-6.72-9.08-10.2-1.94-2.22-3.92-4.41-5.91-6.59-3.63-4.03-7.17-8.12-10.7-12.2-3.85-4.53-7.77-8.96-11.8-13.3-4.29-4.64-8.29-9.44-12.2-14.4-2.32-2.77-4.79-5.28-7.39-7.79-2.39-2.39-4.58-4.94-6.79-7.5-2.1-2.42-4.23-4.79-6.38-7.17-3.16-3.5-6.3-7.02-9.39-10.6-1.8-2.07-3.62-4.12-5.43-6.18-1.21-1.37-2.41-2.74-3.62-4.11-0.89-1-0.89-1-1.79-2.02-0.55-0.63-1.1-1.26-1.67-1.91-0.5-0.57-1-1.14-1.52-1.72-1.08-1.48-1.08-1.48-1.08-3.48-0.99-0.33-1.98-0.66-3-1-3.46-4.54-7.07-9.5-6.95-15.4 0.93-6.2 3.17-10.5 7.95-14.6 3.6-2.48 5.97-3.37 10.3-3.34h3.16c1.11 0.02 2.22 0.03 3.36 0.05 1.72 0.01 1.72 0.01 3.48 0.01 3.66 0.02 7.32 0.06 11 0.1 2.49 0.01 4.97 0.02 7.45 0.04 6.08 0.03 12.2 0.08 18.2 0.14 0-0.65 0-1.3 0.01-1.98 0.03-15.9 0.09-31.8 0.17-47.7 0.04-7.7 0.08-15.4 0.09-23.1 0.01-6.71 0.04-13.4 0.09-20.1 0.02-3.55 0.03-7.1 0.03-10.6 0-3.97 0.03-7.94 0.06-11.9 0-1.76 0-1.76-0.01-3.55 0.08-6.55 0.35-10.8 4.56-16 5.95-5.34 11.1-6.89 19-6.86 0.95-0.02 1.9-0.04 2.88-0.06 5.04-0.09 10.1-0.09 15.1-0.15zm-3.72 38.3c-1.75 2.44-1.66 4.03-1.65 7.02-0.01 1.08-0.02 2.16-0.02 3.28 0.01 1.18 0.02 2.37 0.03 3.59 0 1.25-0.01 2.5-0.01 3.78 0 2.72 0 5.44 0.01 8.16 0.02 4.3 0.01 8.6 0 12.9-0.03 11.5-0.03 22.9-0.01 34.4 0.01 7.52 0.01 15-0.02 22.6-0.02 4.27-0.01 8.54 0.01 12.8 0.02 3.28 0 6.57-0.02 9.86 0.02 1.77 0.02 1.77 0.04 3.57-0.09 8.92-0.09 8.92-3.04 12.6-4.64 4.09-8.35 4.56-14.4 4.72-1.29 0.04-2.59 0.07-3.92 0.11-1.35 0.04-2.71 0.07-4.06 0.1-1.38 0.04-2.75 0.08-4.12 0.12-3.36 0.09-6.71 0.17-10.1 0.25l-1 3c1.03 1.74 1.03 1.74 2.63 3.38 0.56 0.62 1.12 1.24 1.7 1.88 1.31 1.37 2.64 2.72 3.98 4.06 4.07 4.07 7.87 8.38 11.7 12.7 0.68 0.77 1.36 1.53 2.07 2.32 2.5 2.83 4.83 5.53 6.93 8.68h2c0.27 0.6 0.54 1.19 0.82 1.8 1.16 2.17 2.34 3.65 4.04 5.41 0.56 0.59 1.12 1.17 1.69 1.78 0.87 0.9 0.87 0.9 1.76 1.83 3.43 3.56 6.68 7.04 9.48 11.1 0.73 1.01 1.46 2.02 2.21 3.05h2v2c1.09 1.13 2.19 2.24 3.31 3.32 5.01 4.98 9.62 10.4 14.1 15.8 0.84 0.95 1.69 1.9 2.56 2.87h2c0.26 0.58 0.52 1.16 0.79 1.75 1.3 2.42 2.77 4.26 4.59 6.32 0.87 1 0.87 1 1.77 2.03 1.84 1.89 3.65 3.45 5.85 4.9h2c1.42-1.57 2.76-3.21 4.06-4.87 3.91-4.91 8-9.55 12.3-14.1 1.86-1.82 1.86-1.82 1.65-4 0.99-0.33 1.98-0.66 3-1 1.89-1.78 1.89-1.78 3.69-3.93 0.62-0.71 1.24-1.43 1.88-2.16 1.63-1.78 1.63-1.78 1.43-3.91 0.99-0.33 1.98-0.66 3-1 0.46-1.2 0.46-1.2 0.94-2.43 1.06-2.57 1.06-2.57 2.94-3.49 2.52-1.28 3.47-2.58 5.06-4.89 2.39-3.44 5.07-6.25 8.06-9.19 1.78-1.88 3.56-3.78 5.31-5.68 0.89-0.96 1.77-1.91 2.68-2.89 2.22-2.16 2.22-2.16 2.01-4.43 0.99-0.33 1.98-0.66 3-1 0.43-0.86 0.43-0.86 0.88-1.75 2.04-4.09 5.37-6.74 9.12-9.25 0.29-0.6 0.58-1.19 0.88-1.81 1.52-2.97 3.73-4.86 6.12-7.19 0.91-1.07 1.8-2.15 2.69-3.25 2.31-2.75 2.31-2.75 4.31-3.75l-1-4c-0.83 0.01-1.66 0.03-2.52 0.04-3.13 0.02-6.25 0.01-9.38-0.02-2-0.02-4 0.01-6 0.04-7.87-0.12-12.6-1.04-18.5-6.46-4.43-7.03-3.94-15.8-3.94-23.8-0.01-1.19-0.02-2.38-0.03-3.61-0.02-3.23-0.03-6.47-0.04-9.7-0.01-3.39-0.04-6.79-0.06-10.2-0.04-6.41-0.07-12.8-0.1-19.2-0.05-11.5-0.12-23-0.19-34.5-0.02-3.37-0.04-6.75-0.05-10.1-0.01-3.75-0.03-7.51-0.06-11.3v-3.4c-0.01-1.52-0.01-1.52-0.02-3.08-0.01-0.88-0.01-1.77-0.02-2.68 0.09-2.01 0.09-2.01-1.13-3.01-2.72-0.11-5.42-0.15-8.14-0.16-1.28-0.01-1.28-0.01-2.59-0.01-2.84-0.02-5.67-0.02-8.51-0.03-1.97-0.01-3.93-0.01-5.89-0.02-4.13-0.01-8.25-0.01-12.4-0.02-5.29 0-10.6-0.03-15.9-0.06-4.06-0.01-8.12-0.02-12.2-0.02-1.95 0-3.9-0.01-5.86-0.02-2.72-0.02-5.45-0.02-8.18-0.01-0.81-0.01-1.62-0.02-2.45-0.03-4.06-0.05-4.06-0.05-7.66 1.58zm-37.3 93.8 1 2z" fill="#ED3C35"/>
<path transform="translate(796 1044)" d="m0 0h4.07c2.84-0 5.67 0.01 8.51 0.03 3.58 0.02 7.16 0.02 10.7 0.01 40.1-0.05 40.1-0.05 47.6 4.32 1.37 0.42 2.75 0.81 4.13 1.19 7.28 2.36 13.8 7.14 18.9 12.8v2c0.58 0.23 1.16 0.46 1.76 0.69 7.41 4.33 11.9 14.7 15.2 22.3 0.51 1.06 1.02 2.11 1.54 3.2 1.84 4.32 2.41 8.74 3.03 13.4 0.78 6.25 0.78 6.25 2.51 12.3 1.46 4.98 1.21 9.93 1.17 15.1 0.01 1.06 0.02 2.12 0.03 3.21-0.02 5.7-0.52 10.4-2.28 15.8-0.54 3.12-0.94 6.25-1.37 9.38-1.01 6.78-2.2 12.6-5.63 18.6-0.45 0.89-0.91 1.78-1.38 2.69-2.98 5.73-6.14 11.6-10.6 16.3h-2c-0.24 0.6-0.49 1.2-0.74 1.82-4.87 8.47-18.9 12.6-27.7 15.3-5.78 1.45-11.5 1.85-17.4 2.15-1.3 0.08-2.61 0.15-3.95 0.23-11.4 0.6-22.9 0.73-34.3 0.77-0.84 0.01-1.69 0.01-2.55 0.02-27.3 0.13-27.3 0.13-32.8-4.18-3.78-4.08-5.6-7.66-5.87-13.2-0.06-1.26-0.06-1.26-0.12-2.55-0.04-0.92-0.08-1.84-0.12-2.79-0.06-1.46-0.06-1.46-0.13-2.95-0.48-12.2-0.48-24.4-0.49-36.7 0-2.54 0-5.08-0.01-7.62v-15.8c0-6.07-0.01-12.1-0.03-18.2-0.01-5.9-0.02-11.8-0.02-17.7 0-2.49 0-4.97-0.01-7.46-0.01-3.47-0.01-6.94 0-10.4-0.01-1-0.01-2.01-0.02-3.05 0.09-19.6 0.09-19.6 5.68-26.3 6.71-5.6 16.4-4.74 24.6-4.68zm4.97 29.4c-0.3 2.02-0.3 2.02-0.25 4.37-0.01 0.92-0.01 1.84-0.02 2.79 0.01 1.01 0.01 2.02 0.01 3.06 0 1.06 0 2.12-0.01 3.21-0.01 3.53 0 7.06 0.01 10.6 0 2.44-0.01 4.89-0.01 7.33 0 5.14 0 10.3 0.01 15.4 0.01 6.58 0.01 13.2-0.01 19.7 0 5.05 0 10.1 0.01 15.2 0 2.42-0.01 4.85-0.01 7.27-0.01 3.4 0 6.8 0.01 10.2 0 1 0 2-0.01 3.03 0.03 5.32 0.36 9.85 2.27 14.8 1.96 1.24 1.96 1.24 4.15 0.56 3.54-0.69 6.95-0.59 10.5-0.48 1.52 0.03 3.04 0.05 4.56 0.08 2.36 0.04 4.73 0.09 7.09 0.17 11.9 0.35 22.6-0.33 32.5-8.01 2.41-2.03 2.41-2.03 2.18-4.32 0.87-0.31 0.87-0.31 1.75-0.62 5.33-3.26 7.38-9.63 9.44-15.2 0.26-0.67 0.52-1.34 0.79-2.03 0.25-0.67 0.5-1.34 0.75-2.03 0.22-0.59 0.44-1.18 0.67-1.78 2.08-7.91 1.82-16.2 1.84-24.3 0.01-2.17 0.04-4.35 0.08-6.52 0.09-11.6-1.24-22.5-6.69-32.9-0.57-1.12-1.13-2.23-1.71-3.38-2.75-4.58-5.15-8.45-10.2-10.6-0.89-0.21-1.77-0.41-2.69-0.63v-2c-12.6-5.78-26.8-5.19-40.4-5.25-0.71 0-1.41-0.01-2.14-0.01-2.02-0.01-4.05-0.01-6.07 0h-3.6c-2.95-0.03-2.95-0.03-4.82 2.26zm-34 70 1 3z" fill="#2F3235"/>
<path transform="translate(636 1044)" d="m0 0c1.52-0.01 3.03-0.01 4.55-0.02 3.18-0.01 6.35-0.02 9.53-0.01 4.02 0 8.04-0.03 12.1-0.07 3.14-0.02 6.27-0.02 9.41-0.02 1.48 0 2.96-0.01 4.44-0.03 12.2-0.12 26.1 0.49 36.5 7.49 0.95 0.57 1.9 1.15 2.88 1.75 11.2 8.09 17.8 18.6 20.1 32.2 1.91 28.1 1.91 28.1-5 40-0.59 1.11-1.19 2.22-1.81 3.37-4.26 5.11-9.28 9.52-15.2 12.6-0.54 0.3-1.09 0.61-1.65 0.92-5.18 2.78-10.1 4.23-15.9 5.28-0.91 0.17-1.81 0.34-2.75 0.51-10.6 1.82-21.2 1.92-32 1.97-2.98 0.03-5.97 0.07-8.96 0.11-1.83 0.02-3.67 0.03-5.5 0.04-3.96-0.36-3.96-0.36-7.29 1.17-0.09 1.76-0.11 3.53-0.11 5.29v3.43c0 1.24 0.01 2.47 0.01 3.74-0.02 2.6-0.03 5.2-0.05 7.8-0.02 4.11-0.04 8.22-0.02 12.3 0.01 3.96-0.02 7.92-0.06 11.9 0.02 1.22 0.03 2.44 0.04 3.7-0.11 7.64-1.27 13.3-6.81 18.8-3.55 1.18-6.8 1.18-10.5 1.18-0.67 0.02-1.35 0.03-2.05 0.04-3.71 0.01-5.28-0.11-8.45-2.22v-2c-0.59-0.21-1.19-0.42-1.81-0.63-3.23-2.03-3.83-3.78-5.19-7.37-0.43-4.01-0.39-8-0.35-12 0-1.21-0.01-2.42-0.01-3.66 0-3.31 0.01-6.62 0.03-9.92 0.01-3.49 0.01-6.98 0.01-10.5 0.01-5.88 0.02-11.8 0.04-17.6 0.03-7.46 0.04-14.9 0.05-22.4 0-6.5 0.01-13 0.03-19.5 0-2.04 0-4.09 0.01-6.13 0.03-17.4 0.38-34.8 1.19-52.3l2-1c2.9-2.7 2.9-2.7 5-6 7.61-2.72 15.5-2.33 23.5-2.34zm49.5 1.34v1h5v-1h-5zm-45.7 25.7c-1.51 2.68-1.65 4.27-1.63 7.33v3.03c0.02 1.08 0.03 2.15 0.05 3.25 0.01 1.11 0.01 2.21 0.01 3.35 0.02 3.53 0.06 7.05 0.1 10.6 0.01 2.39 0.03 4.78 0.04 7.17 0.03 5.86 0.08 11.7 0.14 17.6 8.28 0.65 16.5 1.18 24.8 1.18 1.29 0.02 1.29 0.02 2.61 0.04 7.64 0.02 14.7-1.04 21.6-4.35 0.75-0.35 1.5-0.71 2.28-1.07 0.82-0.4 0.82-0.4 1.65-0.8v-2c0.58-0.25 1.16-0.5 1.75-0.75 3.28-1.83 5.54-3.48 6.98-7.06 2.74-10 1.25-19.6-3.57-28.7-4.52-5.32-9.6-8.65-16.6-9.56-1.96-0.14-3.92-0.26-5.89-0.35-1.04-0.06-2.07-0.13-3.14-0.19-3.18-0.18-6.36-0.32-9.55-0.43-1.49-0.07-1.49-0.07-3.01-0.14-2.76-0.11-5.53-0.18-8.3-0.24-0.83-0.03-1.67-0.05-2.53-0.08-4.37-0.12-4.37-0.12-7.87 2.17z" fill="#2F3235"/>
<path transform="translate(970 1044)" d="m0 0c1.27-0 1.27-0 2.56-0.01 2.78 0 5.55 0.01 8.33 0.02h5.82c4.06 0.01 8.13 0.01 12.2 0.03 5.19 0.01 10.4 0.02 15.6 0.02 4.01 0 8.02 0 12 0.01 1.91 0 3.82 0.01 5.74 0.01 2.68 0 5.36 0.01 8.04 0.02h2.36c16 0.09 16 0.09 21.3 5.27 2.39 3.39 2.61 6.82 2.32 10.9-0.94 3.57-0.94 3.57-2 6h-2c-0.49 1.49-0.49 1.49-1 3-4.58 0.73-9 1.14-13.6 1.19-1.28 0.02-2.55 0.04-3.87 0.05-1.01 0.01-1.01 0.01-2.03 0.02-2.13 0.02-4.25 0.05-6.38 0.08-4.51 0.06-9.02 0.11-13.5 0.16-5.23 0.06-10.4 0.12-15.7 0.19-2.08 0.03-4.16 0.05-6.24 0.07-9.37 0.07-9.37 0.07-18.6 1.24-1.61 3.22-1.15 6.72-1.12 10.2 0 0.79 0 1.59 0.01 2.4 0.05 6.68 0.29 13.4 0.62 20 0.04 1.01 0.09 2.01 0.14 3.04 0.12 2.43 0.23 4.86 0.35 7.29h2.15c6.73-0.02 13.4-0.04 20.2-0.05 3.46 0 6.92-0.01 10.4-0.02 3.98-0.02 7.96-0.02 11.9-0.02 1.23-0.01 2.46-0.02 3.73-0.02 5.66 0 11.1 0.08 16.6 1.11v2c0.92 0.14 0.92 0.14 1.86 0.27 2.14 0.73 2.14 0.73 3.41 2.37 2.03 4.24 3.56 7.57 2.73 12.4-3.16 5.58-3.16 5.58-6 7-7.59 1.1-15.1 1.22-22.8 1.32-1.29 0.02-2.59 0.04-3.92 0.06-3.42 0.06-6.84 0.11-10.3 0.16-3.5 0.05-7 0.1-10.5 0.16-6.84 0.1-13.7 0.2-20.5 0.3 0 0.78 0.01 1.55 0.01 2.35 0.04 7.33 0.07 14.7 0.09 22 0.01 3.77 0.03 7.54 0.05 11.3 0.02 3.64 0.03 7.28 0.04 10.9 0 1.38 0.01 2.77 0.02 4.15 0.02 1.95 0.02 3.89 0.02 5.84 0 1.1 0.01 2.21 0.01 3.35-0.46 5.95-2.61 10.4-6.24 15.1-3.55 2.44-6.85 2.24-11.1 2.19-1.23-0.01-2.46-0.01-3.73-0.02-3.21-0.17-3.21-0.17-6.21-1.17-1.79-2.14-1.79-2.14-3.62-4.81-0.62-0.87-1.23-1.74-1.86-2.64-2.46-4.11-2.65-7.55-2.65-12.3-0.01-1.17-0.01-2.35-0.02-3.56v-3.89c0-1.37 0-2.74-0.01-4.11 0-3.73-0.01-7.45-0.01-11.2v-6.99c-0.01-8.14-0.02-16.3-0.02-24.4 0.01-7.57-0.01-15.1-0.02-22.7-0.01-6.51-0.02-13-0.02-19.5 0-3.88 0-7.76-0.01-11.6-0.01-3.66-0.01-7.31 0-11 0-1.96-0.01-3.93-0.02-5.89 0.03-7.66 0.74-14.9 2.26-22.4h3v-2c5.43-5.21 12.7-5.29 19.7-5.24zm-21.7 8.24 1 2zm43 64v1h11v-1h-11zm43 0v1h5v-1h-5z" fill="#2D3031"/>
<path transform="translate(534 313)" d="m0 0c0.98-0 1.96-0.01 2.97-0.01 2.53 0.13 2.53 0.13 4.53 1.13 0.41 2.33 0.74 4.66 1 7h-3c-2.15 0.95-2.15 0.95-4 2-0.99-0.66-1.98-1.31-3-2l1-3h2v-2c-3.16 1.37-3.99 1.99-6 5l-2-2c-0.33 1-0.66 1.99-1 3 0.99 0.33 1.98 0.67 3 1v2c2.01 1.01 3.82 1.48 6 2 0.99 0.33 1.98 0.67 3 1-0.66 1-1.32 1.99-2 3h-3l-1 1c1.58 0.23 3.17 0.43 4.75 0.63 0.88 0.12 1.76 0.23 2.67 0.35 2.81 0.03 4.21-0.53 6.58-1.98-0.8-0.63-1.61-1.27-2.44-1.93-2.56-2.07-2.56-2.07-3.56-3.07l1-3c4.09-0.88 6.95-1.34 11 0 3.05 0.16 3.05 0.16 6-1 2.12 0.57 2.12 0.57 4 2 0.75 3.13 0.75 3.13 1 6-2.97 0.67-5.94 1.32-9 2 4.62 0.91 9.1 1.15 13.8 1.13 1.14 0.01 1.14 0.01 2.3 0.01h7.45 5.2 10.9c4.65-0.01 9.3-0.01 13.9 0h10.7 5.14c2.39 0 4.78 0 7.17-0.01 0.71 0.01 1.42 0.01 2.15 0.01 3.04-0.01 5.36-0.17 8.26-1.14-1.98-0.66-3.96-1.31-6-2l3-3h-2v-4c1.98-0.32 3.96-0.66 6-1 0.12 0.64 0.25 1.28 0.38 1.94 0.2 0.68 0.41 1.36 0.62 2.06 0.99 0.5 0.99 0.5 2 1-0.66 0.33-1.32 0.67-2 1 1.65 0.33 3.3 0.67 5 1 0.33-0.66 0.66-1.31 1-2 2.06-0.62 2.06-0.62 4-1l-1-3h3v3c1.65-0.32 3.3-0.66 5-1l-1-3c0.66-0.32 1.32-0.66 2-1-0.33-0.66-0.66-1.31-1-2h3v3c1.46 0.2 2.92 0.39 4.38 0.57 0.81 0.1 1.62 0.21 2.46 0.31 2.21 0.31 2.21 0.31 4.16-0.88-2.31-0.32-4.62-0.66-7-1 1.32-1.31 2.64-2.63 4-4 0.68 0.33 1.36 0.67 2.06 1 3 1.2 3 1.2 6.63 1h3.31l3 3c1.66 0.37 3.33 0.7 5 1 0.33-1.31 0.66-2.63 1-4 1.98 0.5 1.98 0.5 4 1v2h3c0.33-1.64 0.66-3.3 1-5 3.3 0.67 6.6 1.32 10 2 0.33-0.66 0.66-1.31 1-2 1.2 0.03 2.39 0.05 3.62 0.07 3.57 0 6.86-0.47 10.4-1.07 1.52 0.04 1.52 0.04 3.06 0.07 3.42-0.06 6.31-0.45 9.65-1.05 7.24-1.14 14.4-1.32 21.7-1.28 2.15 0.02 4.29 0 6.44-0.01 1.38 0 2.77 0.01 4.15 0.01 1.23 0 2.46 0 3.73 0.01 3.23 0.25 5.39 0.9 8.3 2.25 3.33 1.11 6.53 1.55 10 2 2.12 6.63 2.12 6.63 1 10-0.66 0.67-1.32 1.32-2 2 0.33 1 0.66 1.99 1 3 0.99-0.32 1.98-0.66 3-1 0.33-1.64 0.66-3.3 1-5 7.85-0.3 7.85-0.3 11 2 0.33 1 0.66 1.99 1 3h2v-2c3-1 3-1 6 0 0.33-0.66 0.66-1.31 1-2 7.75 0.88 7.75 0.88 10 2v2c-1.98 0.5-1.98 0.5-4 1 3.69 0.03 7.37 0.05 11.1 0.07 1.56 0.01 1.56 0.01 3.15 0.02 8.84 0.03 15.2-0.21 22.8-5.09 0.66-0.66 1.32-1.31 2-2 0.14 0.64 0.29 1.28 0.44 1.94 0.37 2.04 0.37 2.04 1.56 3.06l2-3c1.65 0.67 3.3 1.32 5 2v2c0.99-0.32 1.98-0.66 3-1v-2c2.45-0.87 3.63-1.12 6.12-0.24 1.88 1.24 1.88 1.24 3.88 4.24l1-3v2h2c0.33 0.67 0.66 1.32 1 2 0.99 0.33 1.98 0.67 3 1v2c-0.66 0.67-1.32 1.32-2 2h2v2h6v4c-0.68-0.2-1.36-0.41-2.05-0.63-6.41-1.87-12.3-2.88-19-3.04-0.97-0.04-1.94-0.07-2.95-0.1-14.1-0.43-28.3-0.37-42.4-0.37-4.29 0-8.59-0.01-12.9-0.01-8.38-0.01-16.8-0.01-25.1-0.01-6.81 0-13.6 0-20.4-0.01-19.4-0.01-38.7-0.01-58-0.01h-3.14-3.16c-16.9 0-33.8-0.01-50.7-0.02-17.4-0.02-34.8-0.02-52.2-0.02-9.74 0-19.5-0.01-29.2-0.02-8.29-0.01-16.6-0.01-24.9 0-4.23 0-8.45 0-12.7-0.01-3.87 0-7.74 0-11.6 0.01-1.4 0-2.8 0-4.19-0.01-14.6-0.05-28.9 1.71-40.2 11.8-2.96 3.38-5.7 6.77-8.19 10.5h-2c-0.2 0.79-0.41 1.57-0.62 2.38-0.41 1.51-0.41 1.51-0.82 3.06-0.26 1.01-0.53 2.02-0.81 3.06-0.75 2.5-0.75 2.5-1.75 3.5-2.04 8.21-2.53 16.6-3 25h-1c-0.06-0.63-0.12-1.27-0.18-1.93-0.09-0.82-0.17-1.65-0.26-2.5-0.08-0.83-0.16-1.65-0.24-2.5-0.11-2.05-0.11-2.05-1.32-3.07-0.21-1.78-0.37-3.58-0.5-5.37-0.23-3.15-0.5-5.62-1.5-8.63h2v-2c-0.66-0.32-1.32-0.65-2-1v-5c2.48-0.49 2.48-0.49 5-1 0.03-1.45 0.05-2.91 0.06-4.37 0.01-0.81 0.03-1.62 0.04-2.46 0.04-2.21 0.04-2.21-1.1-4.17 1.98 0.33 3.96 0.66 6 1v-8c0.8-0.14 1.61-0.28 2.44-0.43 2.48-0.31 2.48-0.31 3.56-1.57 1.33-0.36 2.66-0.69 4-1-0.33-1.98-0.66-3.95-1-6-0.33 0.33-0.66 0.67-1 1-1.67 0.05-3.33 0.05-5 0v4h-6v3c-1.98 0.5-1.98 0.5-4 1 0.66-5.27 1.32-10.6 2-16 7-2 7-2 10-2v-2c0.99 0.33 1.98 0.67 3 1 0.41-0.47 0.82-0.94 1.25-1.43 1.98-1.77 3.19-2.02 5.75-2.57 2.48-0.75 3.67-1.38 4.92-3.68 0.75-1.75 1.42-3.53 2.08-5.32h5c-0.81 2.44-0.81 2.44-2 5-0.99 0.33-1.98 0.67-3 1 3.03 0.17 3.03 0.17 5.81-1 3.26-1.02 5.8-1.16 9.19-1 0.33-0.66 0.66-1.31 1-2h6v2h2l1-3c1.32 0.33 2.64 0.67 4 1l2-3h3v-2c2.61-1.3 4.59-1.13 7.5-1.12z" fill="#2D3031"/>
<path transform="translate(773,1047)" d="m0 0c2 1 2 1 2.63 2.74 0.25 1.06 0.25 1.06 0.49 2.14 0.17 0.69 0.34 1.39 0.51 2.11 0.37 2.01 0.37 2.01 0.37 5.01l1 1c1.68-0.29 3.34-0.62 5-1-0.99-0.33-1.98-0.66-3-1l4-3-3-2c3-2 3-2 5-3l2 2c2.11-0.32 2.11-0.32 4-1v2l4-3 2 5h-2v2c0.78-0.16 1.57-0.33 2.38-0.5 11.9-1.64 11.9-1.64 16.6 1.5-0.99 0.33-1.98 0.66-3 1 2.94 2.5 5.18 3.47 9 4-0.5 1.48-0.5 1.48-1 3 1.09 0.31 2.19 0.62 3.31 0.94 2.24 0.64 4.48 1.32 6.69 2.06-3.77 3.77-10 3.02-15.1 3.02-2.18 0-4.37-0.02-6.56-0.06-1.77-0.02-3.55 0.01-5.32 0.04-1.56 1.56-1.13 3.08-1.13 5.25-0.01 0.92-0.01 1.83-0.02 2.78v3.07c0 1.06 0 2.12-0.01 3.22 0 3.53-0.01 7.06-0.01 10.6 0 2.45 0 4.9-0.01 7.35 0 5.14-0.01 10.3-0.01 15.4 0 6.59-0.01 13.2-0.03 19.8-0.01 5.06-0.01 10.1-0.01 15.2 0 2.43 0 4.86-0.01 7.29-0.01 3.4-0.01 6.8 0 10.2-0.01 1.01-0.01 2.01-0.02 3.04-0.03 8.97-0.03 8.97 3.88 16.8 0.46 0.35 0.91 0.7 1.38 1.06-1 2-1 2-3.29 2.84-2.71 0.16-2.71 0.16-4.98-1.18-5.6-5.43-5.6-5.43-5.98-9.13 0.31-2.41 0.31-2.41 0.85-4.65 0.62-1.96 0.62-1.96-0.6-3.88v-3c-0.96-2.08-0.96-2.08-2.56-4-1.44-2-1.44-2-1.44-4 1.98-0.49 1.98-0.49 4-1l-2-3c-0.16-3-0.16-3-0.06-6.44 0.1-3.79 0-6.91-0.94-10.6-0.09-2.14-0.13-4.29-0.12-6.44-0.01-1.11-0.01-2.22-0.01-3.37 0.12-2.85 0.48-5.42 1.13-8.19h-4c0.13 0.92 0.13 0.92 0.25 1.86 0.11 0.81 0.21 1.62 0.31 2.45 0.11 0.8 0.21 1.6 0.32 2.43 0.12 2.26 0.12 2.26-0.88 5.26-2.06 0.69-2.06 0.69-4 1v2h2l1-2c1.62 3.25 1.62 3.25 3 7-0.65 1.34-1.32 2.67-2 4 0.01 2.3 0.01 2.3 0.44 4.69 0.64 4.99 0.28 9.33-0.44 14.3h-2v-5h-5l-1-2 2-2c0-2.62-0.31-4.51-1-7h-4l1 12c1.13 0.45 2.27 0.91 3.44 1.38 3.56 1.62 3.56 1.62 4.56 3.62h2c0.27 0.8 0.54 1.61 0.81 2.44 0.39 0.84 0.79 1.69 1.19 2.56 0.99 0.33 1.98 0.66 3 1h-2c-0.89 2.67-1.48 5.24-2 8h4v4l-4-1c0.19 1.13 0.37 2.27 0.56 3.44 0.15 1.17 0.29 2.35 0.44 3.56-2.1 2.1-6.1 1.87-9 2l-2-1v-2h-2c-0.5 0.99-0.5 0.99-1 2h-5l-1 7h-1c-1.88-16-2.3-31.9-2.27-48v-7.63c0-5.29 0-10.6 0.01-15.9 0.01-6.07 0.01-12.2 0-18.2-0.01-5.91-0.01-11.8-0.01-17.7v-7.46c-0.01-3.48 0-6.96 0.01-10.4 0-1.01-0.01-2.02-0.01-3.06 0.06-10.2 0.37-19.6 7.27-27.6zm-6 96 1 3z" fill="#2F3235"/>
<path transform="translate(970 1044)" d="m0 0c1.27-0 1.27-0 2.56-0.01 2.78 0 5.55 0.01 8.33 0.02h5.82c4.06 0.01 8.13 0.01 12.2 0.03 5.19 0.01 10.4 0.02 15.6 0.02 4.01 0 8.02 0 12 0.01 1.91 0 3.82 0.01 5.74 0.01 2.68 0 5.36 0.01 8.04 0.02h2.36c16 0.09 16 0.09 21.3 5.27 2.39 3.39 2.61 6.82 2.32 10.9-0.94 3.57-0.94 3.57-2 6h-2c-0.49 1.49-0.49 1.49-1 3-4.71 0.75-9.27 1.15-14 1.24-0.67 0.01-1.33 0.03-2.02 0.04-2.17 0.04-4.34 0.08-6.52 0.11-1.52 0.03-3.04 0.05-4.56 0.08-3.19 0.05-6.37 0.1-9.55 0.15-4.07 0.06-8.13 0.13-12.2 0.21-3.14 0.06-6.28 0.1-9.42 0.15-1.5 0.02-3 0.05-4.5 0.08-2.1 0.04-4.2 0.07-6.3 0.09-1.19 0.02-2.38 0.04-3.61 0.06-3.42-0.22-6.08-1.04-9.29-2.21-2.17 0.07-2.17 0.07-4.12 0.57-3.88 0.43-3.88 0.43-6.38-1-0.49-0.52-0.99-1.04-1.5-1.57 3-1 3-1 6 0v-4h-3l-1 2-2-1c-2.66-0.43-5.32-0.69-8-1l1 2c0.07 1.54 0.08 3.09 0.06 4.63-0.01 0.82-0.02 1.63-0.02 2.47-0.02 0.63-0.03 1.26-0.04 1.9-0.45-0.66-0.91-1.32-1.37-2-0.54-0.66-1.08-1.32-1.63-2h-2c0.17 1.08 0.33 2.15 0.5 3.25 0.48 3.63 0.5 7.1 0.5 10.8 1.49-1.49 1.64-2.94 2-5-0.49-1.48-0.49-1.48-1-3h3v5h5l-1 2h-4v3l1-2 4 1v4h1l1-2h3v2l5 1v5l-2-2h-3l1 7c-1.48 0.5-1.48 0.5-3 1-0.12-5.75-0.12-5.75 1-8h-9l1 6 4 1c-1.37 1.5-1.37 1.5-3 3h-2l1 3c0.04 2 0.04 4 0 6h2v-3l5 2v-6l4 2c-0.31 0.93-0.31 0.93-0.62 1.88-0.13 0.7-0.25 1.4-0.38 2.12l2 2-2 3c-2.62 0.19-2.62 0.19-5 0 0.27 1.99 0.27 1.99 1 4 1.49 0.5 1.49 0.5 3 1 1.19 2.07 1.19 2.07 2 4h2l1 10-4-1h-3l-1-5c-1.48-0.49-1.48-0.49-3-1 0.21 0.62 0.41 1.24 0.63 1.88 0.12 0.7 0.24 1.4 0.37 2.12-2 2-2 2-4 3h4c-0.36 3.21-0.64 4.66-3 6.94-2.62 2.71-2.93 4.32-3 8.06 0.93 2.03 1.93 4.04 3 6v4h-2c-0.49 0.99-0.49 0.99-1 2-0.99-1.32-1.98-2.64-3-4l-2 2-2-1v6l2-2c3.88 3.75 3.88 3.75 5 6h1v5c-0.6-0.47-1.2-0.95-1.81-1.43-2.19-1.73-2.19-1.73-5.19-2.57l-1-2c-1.4 1.17-1.4 1.17-1.12 4.44-0.13 3.4-0.13 3.4 1.12 5.56h-2v5l-2 1c1.06 3.41 2.01 6.02 4 9 0.78-0.18 1.57-0.37 2.38-0.56 2.62-0.44 2.62-0.44 4.62 0.56v6l-3-2v-2c-0.99 0.33-1.98 0.66-3 1-1.66 0.35-3.33 0.69-5 1 0.5 1.33 0.5 1.33 1 2.69 0.92 3.06 1.08 5.17 1 8.31l1 3-1 3c-3.96-5.61-5.12-8.96-5.13-15.8-0.01-1.17-0.01-2.35-0.02-3.56v-3.89c0-1.37 0-2.74-0.01-4.11 0-3.73-0.01-7.45-0.01-11.2v-6.99c-0.01-8.14-0.02-16.3-0.02-24.4 0.01-7.57-0.01-15.1-0.02-22.7-0.01-6.51-0.02-13-0.02-19.5 0-3.88 0-7.76-0.01-11.6-0.01-3.66-0.01-7.31 0-11 0-1.96-0.01-3.93-0.02-5.89 0.03-7.66 0.74-14.9 2.26-22.4h3v-2c5.43-5.21 12.7-5.29 19.7-5.24zm-21.7 8.24 1 2z" fill="#2D3031"/>
<path transform="translate(709,1052)" d="m0 0c4.38-0.08 6.84 0.11 10.4 2.82 2.33 2.31 4.51 4.68 6.64 7.18 0.51 0.58 1.02 1.17 1.54 1.77 10.5 13.3 9.65 32.3 8.46 48.2-0.84 4.74-2.58 8.84-5 13-0.6 1.11-1.2 2.23-1.81 3.38-4.26 5.1-9.28 9.52-15.2 12.6-0.82 0.46-0.82 0.46-1.66 0.92-5.16 2.76-10.1 4.26-15.8 5.33-0.89 0.17-1.78 0.34-2.69 0.51-10.9 1.88-21.8 1.61-32.8 1.24 0.82-0.77 1.64-1.53 2.48-2.32 2.78-2.41 2.78-2.41 2.83-5.49-0.1-0.72-0.2-1.45-0.31-2.19l-5-1 1-3c-0.99-0.33-1.98-0.66-3-1l-1-4-8-2v-1c6.62-1 6.62-1 10-1 2.67-0.29 5.33-0.65 8-1v-1c0.82-0.1 1.64-0.2 2.49-0.3 9.88-1.32 18.8-2.78 25.5-10.7 0.51-0.47 1.02-0.93 1.55-1.41 3.99-4.38 3.64-11.4 3.45-17-0.77-7.51-3.21-14.3-9-19.4-3.48-2.31-6.78-3.84-11-4.24v-2h-7l1-3h6c-0.87-0.15-0.87-0.15-1.75-0.31-2.57-0.79-4.19-2-6.25-3.69l2-1-4-4c1.58-0.2 3.17-0.38 4.75-0.56 0.88-0.11 1.76-0.21 2.67-0.32 2.46-0.11 4.25 0.14 6.58 0.88v3l4 1c-0.5-1.98-0.5-1.98-1-4 3.47-0.49 3.47-0.49 7-1v-2c0.99 0.33 1.98 0.66 3 1 0.5 1.48 0.5 1.48 1 3 3.63 0.66 7.26 1.32 11 2-0.25-1.42-0.25-1.42-0.5-2.88-0.5-3.12-0.5-3.12-0.5-5.12z" fill="#2F3235"/>
<path transform="translate(628,1097)" d="m0 0c3.26 0.35 4.02 1.02 6.25 3.56 0.58 0.81 1.15 1.61 1.75 2.44l-4 2v2l4 1c0.19 2.38 0.19 2.38 0 5l-3 2c-0.58 1.96-0.58 1.96-0.69 4.12-0.1 1.28-0.2 2.56-0.31 3.88 2.87-0.57 3.86-0.86 6-3v3h30c0.5 1.48 0.5 1.48 1 3-1.65 0.17-3.29 0.33-4.94 0.5-0.91 0.09-1.83 0.19-2.77 0.28-2.29 0.22-2.29 0.22-3.29 0.22-1.67 0.33-3.33 0.66-5 1 1.98 0.33 3.96 0.66 6 1 0.12 0.8 0.25 1.61 0.38 2.44 0.2 0.84 0.41 1.69 0.62 2.56 0.99 0.49 0.99 0.49 2 1v2l5 2c0.12 2.38 0.12 2.38 0 5l-2 2 3 2c-6.7 1.1-13.4 1.35-20.1 1.61-1.31 0.05-1.31 0.05-2.63 0.11-0.79 0.03-1.58 0.06-2.39 0.09-1.86 0-1.86 0-2.84 1.19-0.09 1.76-0.11 3.53-0.11 5.29v3.44 3.74c-0.01 2.6-0.02 5.2-0.04 7.8-0.02 4.11-0.04 8.22-0.03 12.3 0.02 3.95-0.02 7.91-0.05 11.9 0.01 1.22 0.02 2.44 0.04 3.69-0.11 7.65-1.27 13.3-6.81 18.8-3.55 1.18-6.8 1.18-10.5 1.19-0.68 0.01-1.35 0.02-2.05 0.03-3.71 0.02-5.28-0.11-8.45-2.22v-2c-0.6-0.21-1.2-0.41-1.81-0.62-3.17-1.99-3.83-3.9-5.19-7.38-0.39-3.26-0.35-6.49-0.29-9.77 0-0.93 0.01-1.85 0.01-2.8 0.02-2.94 0.05-5.87 0.09-8.81 0.02-1.99 0.03-3.99 0.04-5.98 0.04-4.88 0.09-9.76 0.15-14.6h1l1-13h1l1 15 1-12h1v17h6l1-6h-2c0.14-0.56 0.29-1.11 0.44-1.69 0.85-3.49 1.56-6.7 1.56-10.3-1.49 0.49-1.49 0.49-3 1-1.07-3.22-0.87-3.9 0-7 0.05-2.91 0.05-2.91-0.25-5.44 0.25-2.56 0.25-2.56 2.13-4.87 2.12-1.69 2.12-1.69 4.12-1.69l2 2 2-6-2-1v-2c-2.48 0.49-2.48 0.49-5 1 0.5-4.45 0.5-4.45 1-9 2.97 0.99 5.94 1.98 9 3-0.46-1.33-0.46-1.33-0.94-2.69-1.9-5.92-2.18-11.1-2.06-17.3h-4l1-3 5-1 1-3z" fill="#2D3031"/>
<path transform="translate(453,834)" d="m0 0c2.77 1.39 3.48 3.34 5 6 0.99 1.49 0.99 1.49 2 3l-2 4h-2l-1 17 4-1v7l-1 1 1 3c-0.94 2.19-0.94 2.19-2 4 1.49 0.5 1.49 0.5 3 1-0.08 0.61-0.17 1.23-0.25 1.86-0.11 0.81-0.21 1.62-0.31 2.45-0.11 0.8-0.21 1.6-0.32 2.43-0.27 2.43-0.27 2.43 0.88 5.26 0.09 1.36 0.13 2.73 0.13 4.1 0.01 1.19 0.01 1.19 0.01 2.41-0.01 0.84-0.01 1.69-0.02 2.55v2.6c-0.03 5.1-0.22 10.1-1 15.1-0.2 2.35-0.2 2.35 0.34 5.27 0.69 5.04 0.69 9.98 0.66 15 0.01 1.47 0.01 1.47 0.02 2.96 0 0.95-0.01 1.89-0.01 2.87v2.57c-0.14 2.58-0.62 4.95-1.13 7.48-0.09 1.66-0.13 3.32-0.13 4.98 0 0.91-0.01 1.83-0.01 2.78 0.01 1.42 0.01 1.42 0.02 2.86-0.01 0.96-0.01 1.91-0.02 2.9 0.01 1.37 0.01 1.37 0.01 2.77v2.52c0.05 2.37 0.05 2.37 1.13 5.19-0.94 2.19-0.94 2.19-2 4h-3v8h-4v-13c-2.48 0.99-2.48 0.99-5 2-0.89 2.55-0.89 2.55-1 5l4 1h-2v3h-2c-0.29 1.13-0.58 2.27-0.88 3.44-0.55 1.76-0.55 1.76-1.12 3.56l-2 1v-21l-0.09-5.46c-0.02-1.14-0.04-2.28-0.06-3.46-0.02-1.23-0.05-2.47-0.07-3.74s-0.04-2.53-0.07-3.83c-0.06-3.36-0.11-6.71-0.17-10.1-0.06-3.43-0.12-6.85-0.18-10.3l-0.36-20.2-2-1v-3h2v-22h-2c-0.67-1.33-1.33-2.67-2-4-0.99-0.33-1.98-0.66-3-1-0.05-5.09-0.09-10.2-0.11-15.3-0.01-1.73-0.02-3.47-0.04-5.2-0.03-2.49-0.04-4.97-0.05-7.46-0.01-0.78-0.02-1.55-0.03-2.35 0-1.91 0.11-3.82 0.23-5.72l2-2h2c0.29 0.64 0.58 1.28 0.88 1.94 0.95 2.21 0.95 2.21 3.12 3.06v-12l10 6c-0.23-1.75-0.45-3.51-0.69-5.31-0.38-2.99-0.38-2.99-0.31-5.69 1.48-1.86 1.48-1.86 3-3z" fill="#2D3031"/>
<path transform="translate(1097 1307)" d="m0 0c2.43-0.01 4.86-0.03 7.3-0.05 3.36-0.03 6.72-0.04 10.1-0.05 0.99-0.01 1.98-0.02 3-0.03 1.34 0 1.34 0 2.72 0.01 0.77-0.01 1.55-0.01 2.35-0.02 2.02 0.37 2.02 0.37 5.02 3.37-9.9 0.33-19.8 0.66-30 1v1c-0.67-0.01-1.33-0.02-2.02-0.03-4.48-0.05-8.59 0-13 1.03h-4v2h-3c2.27 0.73 3.6 1.12 5.93 0.44 2.84-0.6 4.5 0.35 7.07 1.56v-2c0.99 0.33 1.98 0.66 3 1 1.33 0.34 2.66 0.68 4 1v2c1.98 0.5 1.98 0.5 4 1l-1 5c0.64-0.18 1.27-0.37 1.93-0.56 0.68-0.14 1.36-0.29 2.07-0.44 1 1 1 1 1.06 3.56-0.02 0.81-0.04 1.61-0.06 2.44-0.91-0.07-1.81-0.14-2.74-0.22-1.18-0.09-2.36-0.18-3.58-0.28-1.17-0.09-2.34-0.18-3.55-0.28-2.04-0.14-4.09-0.22-6.13-0.22 0-3 0-3 1-6 2.06-1.19 2.06-1.19 4-2-0.77 0.17-1.53 0.33-2.32 0.5-2.68 0.5-2.68 0.5-5.68 0.5-1.36 1.31-2.69 2.65-4 4h-2l-2 2-1-2-1 3-8 1c2.85-2.93 5.65-5.64 9-8-0.62 0.22-1.23 0.44-1.87 0.66-0.81 0.28-1.61 0.56-2.45 0.84-0.8 0.28-1.6 0.56-2.42 0.85-2.26 0.65-2.26 0.65-5.26 0.65v3l-2-1h-3-4c1.87-3.87 1.87-3.87 3-5h-22l-1 7-3 2 12 1 1-5c3.2-3 3.2-3 6-3 0.49 2.48 0.49 2.48 1 5h-2c1.99 2.44 1.99 2.44 5.89 2.23 1.69 0 3.37-0.01 5.05-0.03 0.89-0.01 1.77-0.01 2.68-0.01 2.84-0.01 5.67-0.04 8.5-0.06 1.92-0.01 3.84-0.02 5.75-0.03 4.71-0.02 9.42-0.06 14.1-0.1-2.47 2.65-3.63 3.39-7.29 3.55-0.83 0.04-1.67 0.08-2.53 0.12-0.89 0.03-1.77 0.06-2.68 0.08-1.35 0.06-1.35 0.06-2.72 0.11-6.32 0.21-12.5 0.08-18.8-0.86l-1 2c-1.46-0.14-2.92-0.29-4.38-0.44-1.22-0.12-1.22-0.12-2.46-0.24-2.16-0.32-2.16-0.32-4.16-1.32l-1 2v-2h-3l-1 2c-0.7-0.09-1.4-0.19-2.12-0.29-0.91-0.11-1.82-0.22-2.76-0.33-0.9-0.12-1.81-0.23-2.74-0.35-0.79-0.01-1.57-0.02-2.38-0.03l-2 2v-3c-1.46 0.28-2.92 0.58-4.38 0.88-0.81 0.16-1.62 0.32-2.46 0.49-2.35 0.5-2.35 0.5-4.16 2.63-5.69 0.46-10.7-1.14-16-3v2c-1.01-0.2-2.03-0.41-3.07-0.62-3.89-0.63-3.89-0.63-7.31 0.68-4.14 1.08-6.19 0.54-10.2-0.54-4.12-0.88-8.24-0.68-12.4-0.52v-2c-0.85 0.35-1.7 0.7-2.57 1.06-3.28 0.9-4.87 0.77-8.12 0.23-5.38-0.67-10.8-0.68-16.2-0.85-1.89-0.07-1.89-0.07-3.81-0.13-3.08-0.11-6.17-0.21-9.25-0.31l-1-4 5-2v-5h7l1 4c0.92 0.11 1.85 0.21 2.81 0.31 3.43 0.74 3.85 1.36 6.19 3.69 2.62 0.25 2.62 0.25 5 0l1-4c-0.79-0.1-1.57-0.2-2.38-0.31-2.62-0.69-2.62-0.69-4.62-3.69 7.62-1.25 7.62-1.25 11 1 1.94-0.27 1.94-0.27 4-1 4.74-1.13 4.74-1.13 7 0v-2h-24c2-2 2-2 4.57-2.16 1.03 0.03 2.05 0.07 3.11 0.1 6.31 0.11 12.2-0.63 18.3-1.94l-1 3c0.83-0.11 0.83-0.11 1.68-0.22 3.95-0.48 7.72-0.82 11.7-0.65 3.57 0.26 3.57 0.26 5.38-1.69 0.61-0.71 0.61-0.71 1.25-1.44 2.18 0.31 2.18 0.31 4 1v2c1.62-0.14 3.25-0.29 4.87-0.44 0.91-0.08 1.81-0.16 2.74-0.24 2.4-0.19 2.4-0.19 4.39-1.32v2c0.66-0.23 1.32-0.45 2.01-0.69 0.88-0.29 1.76-0.57 2.67-0.87 0.87-0.29 1.74-0.58 2.64-0.88 2.98-0.62 4.73-0.2 7.68 0.44 2.02-0.1 4.04-0.27 6.06-0.5 3.61-0.4 6.46-0.63 9.94 0.5v-2c4.75 0.75 4.75 0.75 7 3 3.59-0.32 3.59-0.32 7-1v-2h9v2h2v2l2-1-1-3h5l1 2h2l-1-5c-1.36 0.02-1.36 0.02-2.74 0.04-1.18 0.01-2.36 0.02-3.58 0.02-1.17 0.02-2.34 0.03-3.55 0.04-3.13-0.1-3.13-0.1-6.13-1.1-2.38-0.04-4.75-0.04-7.13 0-5.65 0.06-11.2-0.09-16.9-0.5-11-0.76-22-0.59-33-0.5v-2c65.9-1.1 65.9-1.1 98.5-1.23z" fill="#2D3031"/>
<path transform="translate(628 1044)" d="m0 0c0.98-0.01 0.98-0.01 1.99-0.02 2.16-0.02 4.33-0.03 6.49-0.04 1.12-0.01 1.12-0.01 2.26-0.01 3.96-0.02 7.93-0.04 11.9-0.05 4.04-0.01 8.08-0.04 12.1-0.08 3.15-0.03 6.3-0.04 9.45-0.04 1.48-0.01 2.97-0.02 4.46-0.04 12.2-0.14 26.1 0.46 36.6 7.46 0.99 0.49 0.99 0.49 2 1l-1 2-5-2c0.16 0.95 0.33 1.89 0.5 2.87 0.5 3.13 0.5 3.13 0.5 5.13-8.9 0.29-8.9 0.29-12-2-1.75-2.13-1.75-2.13-3-4v2c-0.81 0.27-1.61 0.53-2.44 0.81-0.85 0.39-1.69 0.78-2.56 1.19l-1 3h-5c-0.5-1.49-0.5-1.49-1-3-1.17-1.39-1.17-1.39-4.38-1.13-3.58-0.05-3.58-0.05-6.62 1.13 1.98 0.66 3.96 1.32 6 2l-3 3h2v2h3l1-2v2l2 1c-3.29 0.8-4.71 1.09-8 0v2c1.98 0.33 3.96 0.66 6 1v2c-1.14-0.08-2.28-0.15-3.46-0.22-8.86-0.53-17.7-0.92-26.6-1.03-0.86-0.02-1.72-0.05-2.61-0.07-2.67-0.05-2.67-0.05-6.32 0.32-2.38 3.56-2.4 6.36-2.57 10.5-0.32 7.14-0.32 7.14-1.43 10.5-3 1-3 1-5.07 0.25-1.93-1.25-1.93-1.25-3.93-4.25v-3c2.47-0.5 2.47-0.5 5-1v-6l-8-1-1-6c0.99-0.33 1.98-0.66 3-1l-2-1v-2c-0.96-0.44-0.96-0.44-1.94-0.88-2.06-1.12-2.06-1.12-3.06-3.12h-6c-0.94-3.01-1.05-3.87 0-7 0-3.77-0.24-4.91-2-8 4.75-3.17 9.1-3.13 14.7-3.18zm58.3 1.18v1h5v-1h-5z" fill="#2D3031"/>
<path transform="translate(946,1068)" d="m0 0c0.76 0.35 1.53 0.7 2.31 1.06 2.74 1.26 2.74 1.26 5.69-0.06 2.26 6.93 2.26 6.93 1 11 0.38 2.19 0.38 2.19 1 4 1.49-1.49 1.64-2.95 2-5l-1-3h3v5h5l-1 2h-4v3l1-2 4 1v4h1l1-2h3v2l5 1v5l-2-2h-3l1 7c-1.49 0.49-1.49 0.49-3 1-0.12-5.75-0.12-5.75 1-8h-9l1 6 4 1c-1.38 1.5-1.38 1.5-3 3h-2l1 3c0.04 2 0.04 4 0 6h2v-3l5 2v-6l4 2c-0.31 0.93-0.31 0.93-0.62 1.88-0.13 0.7-0.25 1.4-0.38 2.12l2 2-2 3c-2.62 0.19-2.62 0.19-5 0 0.27 1.98 0.27 1.98 1 4 1.49 0.49 1.49 0.49 3 1 1.19 2.06 1.19 2.06 2 4h2l1 10-4-1h-3l-1-5c-1.49-0.49-1.49-0.49-3-1 0.21 0.62 0.41 1.24 0.62 1.88 0.13 0.7 0.25 1.4 0.38 2.12-2 2-2 2-4 3h4c-0.36 3.2-0.64 4.65-3 6.94-2.62 2.7-2.93 4.32-3 8.06 0.93 2.03 1.93 4.04 3 6v4h-2c-0.5 0.99-0.5 0.99-1 2-0.99-1.32-1.98-2.64-3-4l-2 2-2-1v6l2-2c3.88 3.75 3.88 3.75 5 6h1v5c-0.6-0.47-1.2-0.95-1.81-1.44-2.19-1.72-2.19-1.72-5.19-2.56l-1-2c-1.4 1.17-1.4 1.17-1.12 4.44-0.13 3.4-0.13 3.4 1.12 5.56h-2v5c-0.99 0.49-0.99 0.49-2 1 1.06 3.4 2.01 6.01 4 9 0.78-0.19 1.57-0.37 2.38-0.56 2.62-0.44 2.62-0.44 4.62 0.56v6l-3-2v-2c-1.49 0.49-1.49 0.49-3 1-1.66 0.35-3.33 0.68-5 1 0.5 1.33 0.5 1.33 1 2.69 0.92 3.05 1.08 5.17 1 8.31l1 3-1 3c-3.58-5.07-5.12-8.38-5.13-14.5 0-0.9 0-1.8-0.01-2.73 0.01-0.99 0.01-1.97 0.01-2.99v-3.16c-0.01-3.46-0.01-6.92 0-10.4 0-2.43 0-4.85-0.01-7.27 0-5.1 0-10.2 0.01-15.3 0.01-6.46 0-12.9 0-19.4-0.01-5.01-0.01-10 0-15 0-2.38 0-4.76-0.01-7.13-0.01-16 0.37-32 1.14-48.1z" fill="#2F3235"/>
<path transform="translate(786,1126)" d="m0 0c2.48 0.49 2.48 0.49 5 1-0.01 1.27-0.02 2.53-0.04 3.84 0 1.7-0.01 3.4-0.02 5.1-0.01 0.83-0.02 1.66-0.03 2.52-0.02 4.93 0.24 9.71 0.88 14.6 0.21 1.94 0.21 1.94 0.15 5.25 0.06 2.82 0.6 4.31 2.06 6.69l-2 3v-2h-3l2 1c1 1.81 1 1.81 2 4 0.39 0.68 0.78 1.36 1.19 2.06 0.81 1.94 0.81 1.94-0.19 4.94 0.16 0.6 0.33 1.2 0.5 1.81 0.5 2.19 0.5 2.19-0.38 5-0.15 3.84 0.48 4.39 3 7.13 2.91 2.72 2.91 2.72 6.82 3 0.68-0.31 1.36-0.62 2.06-0.94l-1-4c4.07-0.98 7.87-1.12 12-1.1 0.66 0 1.32 0.01 2 0.01 2.09 0 4.17 0.01 6.26 0.03 1.43 0 2.85 0.01 4.27 0.01 3.47 0.01 6.95 0.03 10.4 0.05 0.5 1.48 0.5 1.48 1 3-4.95 0.49-4.95 0.49-10 1v-2h-2l-1 2h-8l-1 1c2.65 1.46 3.89 2 7 2-0.04 0.95-0.08 1.9-0.12 2.88-0.23 3.22-0.23 3.22 2.12 5.12 2.2 0.68 2.2 0.68 4.62 1.12 0.82 0.17 1.64 0.34 2.48 0.51 0.94 0.18 0.94 0.18 1.9 0.37v7h-9v1h11l-1-1c-0.04-1.67-0.04-3.33 0-5h5v3l2 1h-2c2.36 2.36 3.78 2.49 7 3v1c-12.9 0.89-25.8 1.13-38.8 1.18-1.75 0-3.51 0.01-5.26 0.03-27.9 0.2-27.9 0.2-33.4-4.13-3.98-4.29-5.71-7.87-5.62-13.8 0.01-0.81 0.02-1.61 0.02-2.45 0.02-0.61 0.03-1.23 0.04-1.86l2 3c0.37-0.47 0.74-0.95 1.12-1.44 2.51-2.08 4.7-2.21 7.88-2.56v2c4.95-0.49 4.95-0.49 10-1l-1-7c3 0 3 0 5 1v-4c-1.98 0.49-1.98 0.49-4 1-0.69-2.25-0.69-2.25-1-5 1.44-2.31 1.44-2.31 3-4l-1 1c-0.22-0.9-0.22-0.9-0.44-1.81-0.45-1.75-0.99-3.48-1.56-5.19-1.49 0.49-1.49 0.49-3 1-2-3-2-3-3-5l-5-1v-12h4c0.99 2.31 1.98 4.62 3 7l-3 3 5 1v5h2c0.03-2.4 0.05-4.79 0.06-7.19 0.01-0.67 0.02-1.34 0.03-2.04 0.02-3.74-0.35-7.11-1.09-10.8 0.53-0.99 0.53-0.99 1.06-2 1.26-2.08 1.26-2.08 0.06-4.75-0.37-0.74-0.74-1.48-1.12-2.25-0.99 0.33-1.98 0.66-3 1l-1-3 2-1c0.99 0.33 1.98 0.66 3 1l1-7-2-1v-5z" fill="#2D3031"/>
<path transform="translate(796 1044)" d="m0 0c1.4 0 2.8 0.01 4.21 0.01 3.67 0.01 7.34 0.03 11 0.05 3.75 0.02 7.51 0.03 11.3 0.04 7.35 0.02 14.7 0.05 22.1 0.1l2 4-4 4c0.99 0.33 1.98 0.66 3 1l1-4c0.49 1.48 0.49 1.48 1 3 4.25 0.95 7.67 0.84 12 0.19 3.14-0.3 5.94 0.23 9.04 0.81 1 4.87 1 4.87 1 6h-10c-0.5-0.99-0.5-0.99-1-2-1.88-0.85-1.88-0.85-4-1l-3 2c0.49 0.43 0.99 0.86 1.5 1.31 1.5 1.69 1.5 1.69 1.5 4.69 0.99-0.5 0.99-0.5 2-1v2h2l-1 2-8-1c0.99-0.5 0.99-0.5 2-1v-4h-4v-2c-4.96-1.84-4.96-1.84-10-1-1.67 0.04-3.34 0.04-5 0h-3c-0.32 2.95-0.32 2.95 1.31 4.62 1.75 1.59 1.75 1.59 4.69 2.38l1-2c1.98 0.33 3.96 0.66 6 1v3c-0.67-0.03-1.33-0.05-2.02-0.08-4.93-0.1-8.41 0.12-13 2.08-3.52-0.34-5.01-1.01-8-3v-3c-0.75 0.1-1.49 0.2-2.25 0.31-2.75-0.31-2.75-0.31-5.07-2.81-0.55-0.83-1.11-1.65-1.68-2.5l1-1h-16v-6c-0.58 0.33-1.16 0.66-1.75 1-2.25 1-2.25 1-6.25 1-2-1-2-1-3-2l-2 2c0.99 1.48 0.99 1.48 2 3l-4 2 2 1-1 3h-2v-2l-4 2c0.27-1.15 0.27-1.15 0.56-2.32 0.66-2.77 0.66-2.77-0.56-5.68-0.42-2.66-0.7-5.33-1-8 7-2.67 14.1-2.26 21.5-2.2z" fill="#2D3031"/>
<path transform="translate(1203,1278)" d="m0 0c0.49 1.48 0.49 1.48 1 3h2c0.98 10.5-7.14 23.2-13.4 31.1-0.52 0.62-1.04 1.25-1.58 1.89-0.92 1.12-0.92 1.12-1.86 2.27-3.52 4.16-3.52 4.16-5.14 5.73h-2c-0.24 0.6-0.49 1.2-0.74 1.81-2.29 3.97-6.44 5.84-10.3 8.19-1.05 0.68-2.1 1.36-3.19 2.06-13.1 7.25-29.9 11-44.8 8.94-2.94-2.02-2.94-2.02-5-4 5.57-3.8 5.57-3.8 8.25-5.06 2.1-0.95 2.1-0.95 3.75-3.94h2v-2c3.38-0.62 3.38-0.62 7-1 2.62 2.62 2 3.34 2 7-2.47 0.49-2.47 0.49-5 1h9v-5h3v-2c3.29-0.8 4.71-1.1 8 0 0.39-0.45 0.78-0.91 1.19-1.38 2.94-2.63 5.69-3.57 9.62-3.74 0.72 0.04 1.45 0.08 2.19 0.12l-1-3c0.99-0.33 1.98-0.66 3-1v2l2-1-1-2c6.29-2.43 6.29-2.43 10-1v-2c-0.99-0.49-0.99-0.49-2-1v-4c0.93-0.12 0.93-0.12 1.88-0.25 2.27-0.56 2.27-0.56 3.31-2.63 1.15-3 2.06-6 2.81-9.12 1.48 0.49 1.48 0.49 3 1v-2c-1.48-0.49-1.48-0.49-3-1 2-2 2-2 5-3 0.99 0.49 0.99 0.49 2 1 0.16-1.26 0.33-2.52 0.5-3.81 0.09-0.71 0.19-1.42 0.28-2.15 0.27-2.19 0.27-2.19 0.22-5.04 2.94-2.12 2.94-2.12 6-4l1-1z" fill="#2D3031"/>
<path transform="translate(984,581)" d="m0 0 1 2 2 1-1 2c1.27-0.45 2.54-0.91 3.81-1.38 0.71-0.25 1.42-0.51 2.15-0.77 2.29-0.88 2.29-0.88 5.04-2.85v2c7.93 1.9 7.93 1.9 16 3l3-2c-0.5-0.99-0.5-0.99-1-2 6.75 1.88 6.75 1.88 9 3-0.5-1.98-0.5-1.98-1-4 0.99 0.33 1.98 0.66 3 1v3h2l1-2 2 2c3.08 0.17 3.08 0.17 6 0 0.49 1.98 0.49 1.98 1 4l-13 1c1.26 0.64 2.52 1.28 3.81 1.94 0.71 0.36 1.42 0.72 2.15 1.09 2.16 1.08 2.16 1.08 5.04 1.97l2-2c3.62-0.12 3.62-0.12 7 0 0.49 0.99 0.49 0.99 1 2 6.67 1.44 13.8 1.12 20.6 1.06 0.98 0 1.95-0.01 2.96-0.01 4.12-0.02 8.25-0.04 12.4-0.07 22.4-0.14 22.4-0.14 33.1 1.02v1c-16.4 0.02-32.7 0.04-49 0.05-7.6 0.01-15.2 0.01-22.8 0.03-6.63 0.01-13.2 0.01-19.9 0.01-3.51 0.01-7.01 0.01-10.5 0.02h-11.8c-1.72 0.01-1.72 0.01-3.47 0.01-10.6-0.01-20.6-0.14-30.6-4.12l2-2c3.62 0.38 3.62 0.38 7 1 0.12-0.8 0.25-1.61 0.38-2.44 0.2-0.84 0.41-1.69 0.62-2.56l2-1c0.12-0.64 0.25-1.28 0.38-1.94 0.62-2.06 0.62-2.06 2.68-3.31 0.64-0.25 1.28-0.5 1.94-0.75z" fill="#2D3031"/>
<path transform="translate(624 1322)" d="m0 0c3.5 0.68 3.5 0.68 6.69-0.06 3.34-0.51 4.85 0.17 7.87 1.56h3v6c1.44 0.17 2.88 0.33 4.32 0.5 0.8 0.09 1.6 0.19 2.42 0.28 2.38 0.27 2.38 0.27 5.26 0.22l1-1c-0.99-0.33-1.98-0.66-3-1l-2-2-2 1v-2l-2-1h2v-2c2.11-0.05 4.21-0.09 6.32-0.12 1.75-0.04 1.75-0.04 3.55-0.08 3.13 0.2 3.13 0.2 6.13 2.2v-2c5.68-0.11 10.5 0.58 16 2v-2c3.82-1.37 7.08-0.68 11 0v2l1.88-0.94c4.91-1.67 10.3-3.12 15.3-1.23 1.92 1.11 1.92 1.11 4.79 3.17l-2 1v2l4 2v3c-3.01 0.93-3.86 1.04-7 0v-5h-3c0.99 0.49 0.99 0.49 2 1l-1 4-2-2v-3c-5.48-0.74-5.48-0.74-11-1h-3c0.99 2.47 0.99 2.47 2 5-1.85 1.86-4.94 1.35-7.44 1.5-4.44 0.14-4.44 0.14-8.56 1.5l-2-1c-3.08-0.24-6.16-0.19-9.25-0.19-1.27-0.02-1.27-0.02-2.56-0.03-4.85-0.02-8.61 0.47-13.2 2.22-3 0-3 0-5.37-1-2.79-1.06-4.68-1.08-7.63-1-1.34-0.29-2.68-0.61-4-1l1-3h3c-0.35-1.98-0.35-1.98-1-4l-2-1 1 3c-2.31 0.33-4.62 0.66-7 1v4h-9v-3l2-1v-3h-5l-1-2h2v-2c3.12-0.85 5.2-0.97 8.44-0.5z" fill="#2D3031"/>
<path transform="translate(904,1165)" d="m0 0h3c1.08 12.6-4.01 20-11.2 30-0.58 0.67-1.17 1.35-1.77 2.05h-2c-0.24 0.6-0.49 1.2-0.74 1.81-3.57 6.21-13.4 10.6-20.1 12.8-2.66 0.5-5.18 0.49-7.88 0.46-0.98-0.01-1.97-0.02-2.98-0.02-0.75-0.02-1.5-0.03-2.27-0.04 0.99-1.65 1.98-3.3 3-5h-4-3c0.56-2.38 0.56-2.38 2-5 3.31-1.25 3.31-1.25 7-2 0.97-0.21 1.94-0.41 2.94-0.62 0.68-0.13 1.36-0.25 2.06-0.38l-5-1 2-3 8 1v2h2l2 2c0.99-0.49 0.99-0.49 2-1v-2l5-2v-2h2v-4l4-4c1.27-3.13 1.27-3.13 2-6-2.99 0.77-2.99 0.77-6 2l-1 3h-4l-1 7-5 2c-1.5-1.25-1.5-1.25-3-3 0-4 0-4 1.5-5.63 0.64-0.5 1.28-0.99 1.94-1.49 2.73-2.07 2.73-2.07 4.56-4.88h2l1-4c0.76 0.02 1.52 0.05 2.3 0.07 1.49 0.03 1.49 0.03 3.01 0.05 1.48 0.04 1.48 0.04 2.99 0.08 2.92 0.01 2.92 0.01 5.7-2.2l3 2 1-3c0.98-2.01 1.98-4.01 3-6z" fill="#2D3031"/>
<path transform="translate(435,1230)" d="m0 0 4 2c-0.19 0.56-0.37 1.11-0.56 1.69-0.52 2.71-0.1 4.65 0.56 7.31l2-2c3.12-0.12 3.12-0.12 6 0l1 7h3v-9c4-1 4-1 7 0 2.21 8.4 2.21 16.4 2 25h-3v2c-1.49 0.49-1.49 0.49-3 1l-3-2c-0.41-2.71-0.13-5.24 0-8l-2-1 1 3h-3l2 2c0.12 2.62 0.12 2.62 0 5-2-0.67-4-1.33-6-2l1 3c-0.28 2.34-0.61 4.68-1 7h-3v-9c-0.99 0.49-0.99 0.49-2 1-0.17 1.15-0.33 2.31-0.5 3.5-0.17 1.15-0.33 2.31-0.5 3.5-0.99 0.49-0.99 0.49-2 1-0.66 2.53-0.66 2.53-1 5-2-2-2-2-2.2-5.48 0.02-1.38 0.04-2.76 0.08-4.14 0-0.71 0.01-1.42 0.02-2.15 0.03-1.74 0.06-3.49 0.1-5.23l-1 14h-1c-0.78-12.8-1.19-25.2 0-38 0.99 0.33 1.98 0.66 3 1l2-7z" fill="#2D3031"/>
<path transform="translate(610 335)" d="m0 0c1.1-0 2.2-0 3.33-0.01h9.5 2.9c4.62 0.01 8.89 0.34 13.5 1.13 0.66-0.32 1.32-0.66 2-1 2.69 0.26 5.33 0.57 8 0.94 4.98 0.76 4.98 0.76 10 1.06h5c-2.9 2.5-4.65 3.38-8.47 3.37-1.33 0-1.33 0-2.69 0.01-0.97-0.01-1.94-0.02-2.94-0.03h-3.1c-3.39-0.01-6.77-0.03-10.2-0.05-2.35-0.01-4.7-0.01-7.05-0.01-6.18-0.02-12.4-0.05-18.5-0.08-6.31-0.03-12.6-0.04-18.9-0.06-12.4-0.03-24.8-0.08-37.1-0.15 0.99-0.66 1.98-1.31 3-2-0.33-0.66-0.66-1.31-1-2 17.6-0.95 35.2-1.11 52.8-1.12z" fill="#2F3235"/>
<path transform="translate(578,1306)" d="m0 0h418v1h-418v-1z" fill="#151618"/>
<path transform="translate(615,1337)" d="m0 0c3 1 3 1 4.9 2.12 2.67 1.12 3.91 0.73 6.68-0.01 5.5-1.25 10.5-1.21 16.1-0.86 0.9 0.04 1.79 0.08 2.72 0.12 5.16 0.28 9.69 0.99 14.6 2.63v-2c0.64 0.14 1.28 0.29 1.94 0.44 6.25 1.15 11.8 1.75 18.2 0.88 4.01-0.45 8.02-0.66 12-0.88 0.77-0.05 1.54-0.09 2.34-0.13 12.9-0.7 12.9-0.7 17.5 2.69v1c-14.3 1.09-28.6 1.16-42.9 1.12h-3.64c-25.5-0.02-51-0.49-76.4-1.12 4.31-4.31 12.1-4.86 18-5 0.71 0.18 1.41 0.36 2.14 0.54 2.54 0.63 3.6-0.37 5.86-1.54z" fill="#2D3031"/>
<path transform="translate(730,1111)" d="m0 0c2.01 2.17 2.94 3.72 3.56 6.62-1.47 8.81-7.62 15.2-14.6 20.4-3.51 2.43-6.92 3.77-11 5l-1-4-5-1c0.64-0.56 1.28-1.11 1.94-1.69 2.96-3.32 3.06-5.97 3.06-10.3l-1-1v-2h5l-2 7h2c2.38-2.62 4.48-4.96 6.06-8.12 1.24-2.48 2.87-4.07 4.94-5.88h2l1-3 1 2 4-4z" fill="#2D3031"/>
<path transform="translate(752 1339)" d="m0 0c4.96 1.26 10.4 0.19 15.5-0.19 1.87-0.13 3.75-0.2 5.63-0.27 0.49 0.5 0.49 0.5 1 1 3.13-0.15 6.24-0.4 9.36-0.68 3.49-0.28 6.28-0.23 9.64 0.68 1.79-0.08 3.59-0.24 5.37-0.43 11.1-1.05 21.7-0.88 32.6 1.43v2c-24 0.69-48 1.11-72 1.13-1.11 0-2.21 0-3.35 0.01-13.9 0.02-27.8-0.29-41.6-1.14l2-4h18v2c0.6-0.24 1.21-0.48 1.83-0.72 5.93-2.1 9.96-2.43 16-0.82z" fill="#2D3031"/>
<path transform="translate(920,466)" d="m0 0h1v8h3l1-3v4h-3c-0.32 5.26 0.33 8.45 3 13l-2 3v3l-2 1c0.64 0.91 1.28 1.81 1.94 2.75 2.75 4.33 2.75 4.33 3.06 7.25l-1 2c0.17 2.29 0.51 4.54 0.84 6.81 0.16 2.19 0.16 2.19-0.84 5.19l-4-1v2c-1.98 0.5-1.98 0.5-4 1v-13h-1c-0.03-2.81-0.05-5.62-0.06-8.44-0.01-0.8-0.02-1.6-0.03-2.43-0.01-2.04 0.04-4.09 0.09-6.13l1-1c0.21-1.52 0.37-3.05 0.5-4.59 0.08-0.93 0.16-1.86 0.25-2.82 0.08-0.98 0.16-1.96 0.25-2.97 0.16-1.92 0.33-3.84 0.5-5.77 0.07-0.86 0.14-1.71 0.22-2.6 0.28-2.25 0.28-2.25 1.28-5.25z" fill="#2D3031"/>
<path transform="translate(632,1150)" d="m0 0c4.75-0.12 4.75-0.12 7 1v51c-2.09-4.18-2.17-4.8-1-9h-2l-1-5-4-1c0.01-0.89 0.02-1.78 0.04-2.7 0-1.17 0.01-2.34 0.02-3.55 0.01-1.16 0.03-2.32 0.04-3.52-0.08-2.64-0.31-4.73-1.1-7.23l4-3-4-5c0.33-0.68 0.66-1.36 1-2.06 1.17-3.45 1.14-6.32 1-9.94z" fill="#2F3235"/>
<path transform="translate(1024,1337)" d="m0 0c2.62 0.38 2.62 0.38 5 1 0.49 1.48 0.49 1.48 1 3 0.99 0.49 0.99 0.49 2 1v2c-30.7-0.33-61.4-0.66-93-1l1-2c2.62-0.41 2.62-0.41 6-0.62 1.18-0.08 2.36-0.15 3.58-0.23 3.44-0.15 6.85-0.17 10.3-0.11 3.03-0.05 5.98-0.47 8.98-0.92 2.14-0.12 2.14-0.12 4.45 0.36 2.7 0.52 5.14 0.65 7.89 0.65 0.96 0 1.92 0.01 2.91 0.01 1.49-0.01 1.49-0.01 3.01-0.02 1.01 0.01 2.01 0.01 3.04 0.02 0.96 0 1.92-0.01 2.91-0.01h2.65c2.45-0.04 2.45-0.04 5.28-1.13 1.73-0.07 3.46-0.08 5.19-0.06 0.9 0.01 1.8 0.02 2.73 0.02 0.69 0.02 1.37 0.03 2.08 0.04v2h11v-2l2-2z" fill="#2D3031"/>
<path transform="translate(1150,582)" d="m0 0c0.99 0.33 1.98 0.66 3 1l1 3h7v5h2v2c-1.99 0.2-3.97 0.39-5.96 0.59-2.34 0.34-2.34 0.34-5.04 2.41-3.51 0.91-6.91 1.18-10.5 1.32-1.02 0.04-2.04 0.08-3.1 0.12-1.05 0.04-2.11 0.08-3.19 0.12-1.08 0.05-2.15 0.09-3.26 0.13-2.64 0.11-5.29 0.21-7.93 0.31 0.64-0.43 1.28-0.87 1.94-1.31 2.33-1.6 2.33-1.6 3.06-4.69 2.76 0.52 5.33 1.11 8 2 0.99-0.33 1.98-0.66 3-1 2-0.04 4-0.04 6 0l1-4h-11v-2c2.97-0.99 5.94-1.98 9-3l1 2 4-4z" fill="#2D3031"/>
<path transform="translate(1196,1179)" d="m0 0h1c0.14 1.24 0.29 2.47 0.44 3.75 0.27 2.24 0.57 4.27 1.18 6.44 0.51 2.44-0.1 4.4-0.62 6.81l1 1c0 1.85 0 3.7-0.03 5.54 0.05 3.64 0.43 7.23 0.81 10.8 0.3 3.59 0.49 6.7-0.53 10.2-0.08 0.81-0.16 1.61-0.25 2.44 1.83 2.33 1.83 2.33 4 4l-2 2c-0.64 2.07-0.64 2.07-1 4 0.99 0.33 1.98 0.66 3 1-1 2-1 2-4 4l-2 2c-0.27-0.97-0.54-1.94-0.81-2.94-0.39-1.01-0.79-2.02-1.19-3.06-0.99-0.33-1.98-0.66-3-1l-1-6c1.98-0.49 1.98-0.49 4-1l-1-4-2 3c-0.12-0.62-0.25-1.24-0.38-1.88-0.49-2.31-0.49-2.31-2.62-4.12 1.48-0.49 1.48-0.49 3-1l1-2h2l1-40z" fill="#2D3031"/>
<path transform="translate(777,1099)" d="m0 0h4l1 5h-2v2h2v3c0.99 0.33 1.98 0.66 3 1l-3 2 2 2-1 2 2-1c0.66-3.03 0.66-3.03 1-6h5c1.53 3.06 0.52 5.68 0 9v4c-1 2.25-1 2.25-2 4l-3-3-1 4h-6l2-3h-3v-3h-2c-0.95-3.7-0.95-6.3 0-10 0.99-0.33 1.98-0.66 3-1h-3v-3l-2-1h2v-3l3-2-2-2z" fill="#2D3031"/>
<path transform="translate(508,1307)" d="m0 0c8.66-0.02 17.3-0.04 26-0.05 4.02-0.01 8.04-0.01 12.1-0.03 3.89-0.01 7.78-0.01 11.7-0.01 1.48-0.01 2.95-0.01 4.43-0.02 8.67-0.03 17.2 0.21 25.9 1.11v1c-4.46 0.49-4.46 0.49-9 1v1c-8.81 0.05-17.6 0.08-26.4 0.1-4.1 0.01-8.19 0.03-12.3 0.05-3.95 0.02-7.9 0.03-11.8 0.04-1.5 0-3.01 0.01-4.52 0.02-2.11 0.02-4.22 0.02-6.33 0.02-1.2 0-2.4 0.01-3.64 0.01-2.94-0.24-2.94-0.24-5.94-2.24v-2z" fill="#2B2D2E"/>
<path transform="translate(452,747)" d="m0 0h2v2c0.64 0.25 1.28 0.5 1.94 0.75 2.06 1.25 2.06 1.25 2.81 3.37 0.12 0.93 0.12 0.93 0.25 1.88h-2c-0.68 9.15-0.68 9.15-1.25 18.3-0.07 1.06-0.07 1.06-0.13 2.14-0.12 2.02-0.23 4.03-0.34 6.04-0.28 3.5-0.28 3.5-0.87 6.28-0.62 2.38-0.62 2.38 0.59 5.22l-1 2c0.28 2.01 0.61 4.01 1 6l-4 2c0.01-1.2 0.01-2.39 0.02-3.62 0.01-4.44 0.03-8.87 0.03-13.3 0.01-1.91 0.02-3.83 0.03-5.75 0.01-2.76 0.01-5.52 0.02-8.28 0-0.86 0.01-1.72 0.01-2.6v-2.43c0.01-0.7 0.01-1.41 0.01-2.13-0.05-2.11-0.05-2.11-1.12-4.88 0.33-0.97 0.66-1.94 1-2.94 1.04-3.17 0.94-4.02 0-7.06l1-3z" fill="#2D3031"/>
<path transform="translate(979,1045)" d="m0 0c3.62-0.03 7.25-0.05 10.9-0.06 1.54-0.02 1.54-0.02 3.12-0.03 0.99 0 1.98 0 2.99-0.01 1.37-0.01 1.37-0.01 2.76-0.01 2.25 0.11 2.25 0.11 4.25 1.11l-1 4h-3c-2.71 1.18-2.71 1.18-5 3-1.56 0.09-3.13 0.11-4.69 0.1-0.95-0.01-1.89-0.01-2.86-0.01-1-0.01-1.99-0.02-3.01-0.03-1 0-2-0.01-3.02-0.01-2.48-0.01-4.95-0.03-7.42-0.05l-1-6c3.47-0.49 3.47-0.49 7-1v-1z" fill="#2F3235"/>
<path transform="translate(954,1055)" d="m0 0c0.99 0.33 1.98 0.66 3 1 0.99-0.33 1.98-0.66 3-1v2l10-1v6h6v1h-6l-1 2-2-1c-2.66-0.43-5.32-0.7-8-1l1 2c0.07 1.54 0.08 3.08 0.06 4.62-0.01 0.82-0.02 1.64-0.02 2.48-0.02 0.63-0.03 1.25-0.04 1.9-0.65-0.96-0.65-0.96-1.31-1.94-1.6-2.33-1.6-2.33-4.69-3.06l-2-1c-0.19-4.82 0.24-8.5 2-13z" fill="#2F3235"/>
<path transform="translate(827,1323)" d="m0 0v3l-6 3c2.49 1.25 3.41 0.78 6 0v4c-4.39 0.86-8.53 1.09-13 1v-3c-1.1-2.27-1.1-2.27-3-4-2.54-0.5-2.54-0.5-5 0l-2 2h-5c-0.62-1.88-0.62-1.88-1-4l2-2c3.14 0.09 6.2 0.38 9.33 0.72 6.52 0.61 11.1-2.01 17.7-0.72z" fill="#2D3031"/>
<path transform="translate(524,1323)" d="m0 0c3.72-0.2 4.77-0.15 8 2 0.99-0.33 1.98-0.66 3-1 3-0.69 3-0.69 6-1l3 2v-2c2.97 0.49 2.97 0.49 6 1-4.18 4.92-4.18 4.92-8.31 5.31-0.89-0.1-1.78-0.2-2.69-0.31v3h-2l-1 3c-2.06 1.69-2.06 1.69-4 3l-2-4h-2v-2c2-1.62 2-1.62 4-3-1.39 0.34-1.39 0.34-2.81 0.69-3.19 0.31-3.19 0.31-5.13-0.88-1.06-1.81-1.06-1.81-0.75-4 0.23-0.6 0.46-1.19 0.69-1.81z" fill="#2D3031"/>
<path transform="translate(1050,1045)" d="m0 0c4.88-0.51 7.93-0.58 11.9 2.44 3.26 3.15 4.03 5.9 4.22 10.4-0.21 2.96-0.98 5.48-2.16 8.19h-2l-1 3-5-1c0.45-0.37 0.91-0.74 1.38-1.12 2.15-2.49 2.89-4.69 3.62-7.88-1.83-3.17-1.83-3.17-5-5-0.31-0.64-0.62-1.28-0.94-1.94-1.27-2.47-2.85-3.44-5.06-5.06v-2z" fill="#2F3235"/>
<path transform="translate(970 1044)" d="m0 0c0.83 0.01 1.66 0.02 2.52 0.03 2.03 0.02 4.07 0.06 6.1 0.09 0.34 1 0.66 1.99 1 3h-8c-1.47 3.92-1.47 3.92-2 8-4.74-0.92-4.74-0.92-7.06-1.62-2.29-0.59-2.29-0.59-5.94 0.62-0.65-2.64-1.32-5.27-2-8 5.25-2.15 9.81-2.24 15.4-2.12z" fill="#2D3031"/>
<path transform="translate(902,1339)" d="m0 0 1 1c2.35 0.07 4.71 0.08 7.06 0.06 1.29-0.01 2.58-0.02 3.91-0.02 1-0.02 2-0.03 3.03-0.04v-1c4.55-0.18 7.88 0 12 2v2h-55c3.52-2.35 6.53-2.67 10.6-3.12 1.08-0.13 1.08-0.13 2.17-0.26 5.1-0.57 10.1-0.89 15.2-0.62z" fill="#2D3031"/>
<path transform="translate(888,1321)" d="m0 0c3 1 3 1 4.94 2 2.02 0.98 3.87 1.53 6.06 2-0.99 0.49-0.99 0.49-2 1l1 3-1 2c2.33-0.96 2.33-0.96 4-4v4l2 1-2 4-4-1-1-5h-5v-2c-2.48 0-4.96 0.02-7.44 0.06-4.2-0.07-7.59-0.74-11.6-2.06v-2c4.75-1.12 4.75-1.12 7 0 2.01-0.63 4.01-1.3 6-2h2l1-1z" fill="#2D3031"/>
<path transform="translate(845,1045)" d="m0 0c2.06-0.03 4.12-0.05 6.19-0.06 1.15-0.01 2.29-0.03 3.48-0.04 2.97 0.09 5.5 0.22 8.33 1.1l2 3c-3.9 3.66-6.67 4.72-12 5-3.44-0.44-3.44-0.44-6-1v-3l-1 3h-5l3-3-2-2 4-1-1-2z" fill="#2F3235"/>
<path transform="translate(428,1100)" d="m0 0h1v133h-1v-133z" fill="#191B1D"/>
<path transform="translate(576,1320)" d="m0 0h6l-1 3h12c0 4 0 4-1.19 5.75-2.37 1.64-3.99 1.48-6.81 1.25l4 2-5 1c0.02-0.8 0.04-1.61 0.06-2.44 0.24-2.49 0.24-2.49-1.06-3.56l-1 3v-3c-1.42 0.53-1.42 0.53-2.88 1.06-3.12 0.94-3.12 0.94-5.12-0.06 1.75-4.88 1.75-4.88 4-6l-2-2z" fill="#2D3031"/>
<path transform="translate(871 1325)" d="m0 0c2.18 2.78 2.5 4.84 2.81 8.31-2.93 0.98-4.95 1.08-8 1l-1-2 1-3h-2v-3h-7l-1 2-3-3c2.96-1.97 4.06-2.34 7.44-2.69 1.14-0.12 1.14-0.12 2.31-0.26 3.55-0.08 5.62 0.46 8.44 2.64z" fill="#2D3031"/>
<path transform="translate(445,1306)" d="m0 0c0.99 0.33 1.98 0.66 3 1v4c0.8 0.23 1.61 0.45 2.44 0.69 0.84 0.43 1.69 0.86 2.56 1.31 0.81 2.62 0.81 2.62 1 5h2l1-3c0.17 0.87 0.33 1.73 0.5 2.62 2.09 4.7 5.34 6.55 9.5 9.38 2.47 1.93 4.79 3.79 7 6-10.9-1.06-19-10.7-26-18.4-1.89-2.49-2.97-4.63-3.96-7.58l1-1z" fill="#2D3031"/>
<path transform="translate(785,1322)" d="m0 0c1.39 0.49 1.39 0.49 2.81 1 3.11 1.15 3.11 1.15 6.19 1l1 2c-0.52 0.39-1.03 0.78-1.56 1.19-0.71 0.89-0.71 0.89-1.44 1.81 0.23 2.65 0.23 2.65 1 5h-9l2-5h-4c-2.25-2-2.25-2-4-4 3-2 3-2 6-2l1-1z" fill="#2D3031"/>
<path transform="translate(1029,1322)" d="m0 0-2 6-1-2h-3v3l2-1 3 3c-3.31 1-6.3 1.1-9.75 1.06-0.98-0.01-1.97-0.02-2.98-0.02-0.75-0.02-1.5-0.03-2.27-0.04 0.98-2.01 1.98-4.01 3-6 0.43-0.93 0.87-1.86 1.31-2.81 1.69-2.19 1.69-2.19 4.63-3.13 3.1-0.06 4.5 0.27 7.06 1.94z" fill="#2F3235"/>
<path transform="translate(1198,931)" d="m0 0h1c0.17 2.94 0.33 5.87 0.5 8.81 0.05 0.84 0.1 1.67 0.14 2.53 0.07 1.2 0.07 1.2 0.14 2.43 0.04 0.74 0.09 1.48 0.13 2.24 0.15 3.21 0 6.29-0.35 9.49-0.08 0.77-0.16 1.55-0.24 2.34-0.32 2.16-0.32 2.16-1.32 5.16l1 1c0.04 2.33 0.04 4.67 0 7-0.99-0.33-1.98-0.66-3-1-0.84-4.86-0.99-9.16-0.56-14.1 0.5-6.37 0.58-12.6 0.4-19 0.16-2.91 0.64-4.49 2.16-6.93z" fill="#2D3031"/>
<path transform="translate(451,992)" d="m0 0h4v8h-2c0.5 0.78 0.99 1.57 1.5 2.38 1.5 2.62 1.5 2.62 1.5 4.62h2v2h-3v11l-2 1v-2l-2-1c-0.2-3.21-0.38-6.42-0.56-9.62-0.06-0.91-0.11-1.81-0.17-2.74-0.26-4.72-0.31-8.99 0.73-13.6z" fill="#2D3031"/>
<path transform="translate(452,1198)" d="m0 0 1 2h2l1 7 2-1v3h-2l-1 4 2 1c-1 7.43-1 7.43-2 11l-4-2c0.19-0.6 0.37-1.2 0.56-1.81 0.66-2.35 0.66-2.35-0.56-5.19-1.16-4.22-0.8-7.52-0.06-11.8 0.19-1.16 0.39-2.33 0.59-3.52 0.15-0.88 0.31-1.76 0.47-2.67z" fill="#2D3031"/>
<path transform="translate(510,304)" d="m0 0h27l1 3c-4.82 1.25-9.56 1.15-14.5 1.12-1.26 0.01-1.26 0.01-2.55 0.02-4.11-0.01-7.94-0.1-12-1.14l1-3z" fill="#2D3031"/>
<path transform="translate(977,1182)" d="m0 0c2.38 3.7 2.21 6.93 2.12 11.2-0.01 1.26-0.03 2.53-0.05 3.83-0.02 0.96-0.05 1.93-0.07 2.92h-2v-4h-4v2h-2c-0.17-4.92-0.25-8.5 2-13 0.99 0.33 1.98 0.66 3 1l1-4z" fill="#303336"/>
<path transform="translate(741,1323)" d="m0 0v2h3v-2c2.31 0.33 4.62 0.66 7 1v10h-7v-3l3-2-5 1 2-1c-3.65-1.61-7.05-2.45-11-3 1.77-3.54 4.3-3 8-3z" fill="#2D3031"/>
<path transform="translate(452,803)" d="m0 0c0.99 0.33 1.98 0.66 3 1v12l2 1h-2l1 6-4 3c-0.78-4-1.27-8.01-1.69-12.1-0.1-1-0.21-2.01-0.32-3.04 0.01-3.12 0.67-5.11 2.01-7.9z" fill="#2D3031"/>
<path transform="translate(978,1321)" d="m0 0h13l-4 2c-1.73 2.03-1.73 2.03-3 4 0.97 0.29 1.94 0.58 2.94 0.88 3.06 1.12 3.06 1.12 4.06 3.12-2.49 0.69-4.38 1-7 1-0.85 0.06-1.69 0.12-2.56 0.19-0.81-0.06-1.61-0.13-2.44-0.19l-2-3 4-2-4-4 1-2z" fill="#2F3235"/>
<path transform="translate(451,686)" d="m0 0 4 1v26c-0.99 0.33-1.98 0.66-3 1 0.01-0.92 0.02-1.84 0.04-2.78 0.04-6.53-0.12-12.8-1.04-19.2-0.04-2-0.05-4 0-6z" fill="#2D3031"/>
<path transform="translate(563,314)" d="m0 0c3 1 3 1 4.94 2.12 2.48 1.06 3.57 0.77 6.06-0.12 0.99 1.32 1.98 2.64 3 4-8.57 1.43-8.57 1.43-12-1l-1 2c-3.25 1.28-5.67 0.83-9 0 4.62-4.88 4.62-4.88 8-6v-1z" fill="#2D3031"/>
<path transform="translate(1183,1322)" d="m0 0c-3.17 3.26-6.4 6.22-10 9l-1-2c-0.99-0.33-1.98-0.66-3-1-0.69-2.06-0.69-2.06-1-4 11-4.01 11-4.01 15-2z" fill="#2F3234"/>
<path transform="translate(699 1050)" d="m0 0c2.82 0.16 5.09-0.17 7.82-0.84l1 5c-1.15-0.19-2.31-0.37-3.5-0.57-4.37-0.56-8.15-0.1-12.5 0.57h-3l-2-2h2v-2c3.27-1.64 6.63-0.59 10.2-0.16z" fill="#303336"/>
<path transform="translate(442,762)" d="m0 0 1 3h2c0.12 6.43-0.18 12.6-1 19-0.99 0.33-1.98 0.66-3 1-0.03-3.46-0.05-6.92-0.06-10.4-0.01-0.98-0.02-1.96-0.03-2.98 0-0.94 0-1.88-0.01-2.85 0-0.87-0.01-1.74-0.01-2.64 0.11-2.15 0.11-2.15 1.11-4.15z" fill="#2D3031"/>
<path transform="translate(1013,1065)" d="m0 0 1 2c0.56-0.08 1.11-0.17 1.69-0.25 5.37-0.72 9.96-0.62 15.3 0.25l-1 2h-36v-2c1.81-0.09 1.81-0.09 3.65-0.18 1.57-0.09 3.15-0.17 4.73-0.26 0.79-0.04 1.58-0.08 2.4-0.12 4.25-0.13 4.25-0.13 8.22-1.44z" fill="#303336"/>
<path transform="translate(441,709)" d="m0 0c0.99 0.5 0.99 0.5 2 1 0.61 2.39 1 4.54 1 7l1 2c-0.33 2.33-0.66 4.67-1 7-0.08 2.67-0.05 5.32 0 8-0.99 0.33-1.98 0.66-3 1v-26z" fill="#2D3031"/>
<path transform="translate(955,1046)" d="m0 0h4l1 3c1.39-0.03 1.39-0.03 2.81-0.06 3.19 0.06 3.19 0.06 6.19 1.06l1 5c-4.74-0.92-4.74-0.92-7.06-1.62-2.3-0.59-2.3-0.59-5.94 0.62l-2-8z" fill="#2F3235"/>
<path transform="translate(973,1064)" d="m0 0 2 2c3.43 0.09 6.81-0.01 10.2-0.17 2.15-0.05 2.15-0.05 5.77 0.17 0.99 1.48 0.99 1.48 2 3-1.11-0.02-2.23-0.04-3.38-0.06-3.45-0.2-3.45-0.2-5.62 1.06-2.7-0.17-5.32-0.61-8-1v1c-3.15 0.26-4.62 0.25-7.31-1.5-0.56-0.49-1.12-0.99-1.69-1.5 3-1 3-1 6 0v-3z" fill="#303336"/>
<path transform="translate(938,573)" d="m0 0h3v2h2v2h5v2l2 1v2h2v2l4 2c-0.99 0.33-1.98 0.66-3 1-5.58-3.05-10.6-7.46-15-12v-2z" fill="#2D3031"/>
<path transform="translate(840 1069)" d="m0 0c1.44-0.05 1.44-0.05 2.91-0.1 7.09-0.05 7.09-0.05 10.4 3.06 0.44 0.82 0.88 1.64 1.33 2.48-3.13 1.57-5.63 0.36-9-0.38-5.98-1.27-11.9-2.21-18-2.62 3.36-3.36 7.82-2.41 12.4-2.44z" fill="#2D3032"/>
<path transform="translate(714,1323)" d="m0 0 1 2h5v-2h5l1 3 4-1c0.99 1.65 1.98 3.3 3 5-4.75-0.75-4.75-0.75-7-3l-1 3-2-2c-0.99-0.33-1.98-0.66-3-1l-1 1-1-2c-0.99 0.33-1.98 0.66-3 1l-2-1 1-3z" fill="#2D3031"/>
<path transform="translate(1196,790)" d="m0 0c0.99 0.33 1.98 0.66 3 1-0.19 0.87-0.37 1.73-0.56 2.62-0.45 3.48-0.08 5.96 0.56 9.38 0.04 2 0.05 4 0 6h-2l-1 3v-3c-0.99-0.33-1.98-0.66-3-1 0.49-1.49 0.49-1.49 1-3h2v-15z" fill="#2D3031"/>
<path transform="translate(940,448)" d="m0 0 2 1c0.08 2.63 0.14 5.25 0.19 7.88 0.04 1.11 0.04 1.11 0.07 2.26 0.03 2.16 0.03 2.16-0.26 5.86l-3 2-2-3c0.33-0.74 0.66-1.49 1-2.25 1.35-2.86 1.35-2.86-0.06-6.31-0.94-3.44-0.94-3.44 0.44-5.88 0.53-0.51 1.07-1.03 1.62-1.56z" fill="#2D3031"/>
<path transform="translate(444,679)" d="m0 0 1 2h-2c0.19 1.24 0.37 2.48 0.56 3.75 0.35 2.31 0.52 3.95-0.06 6.22-0.6 2.43-0.39 4.3-0.06 6.78 0.1 0.8 0.2 1.6 0.31 2.42 0.08 0.61 0.16 1.21 0.25 1.83l-3 2v-24c0.99-0.33 1.98-0.66 3-1z" fill="#2D3031"/>
<path transform="translate(983,587)" d="m0 0c3.47 1.49 3.47 1.49 7 3-3 2-3 2-5 2l-1 2h3v2l2 1h-8l-1-4-1 2-1-3 2-1 2 1 1-5z" fill="#2F3235"/>
<path transform="translate(951,1137)" d="m0 0c2.51 1.26 2.87 2.5 4 5h3v3l-2 2h-3l-1 3c-2.61-3.91-2.22-7.46-2-12l1-1z" fill="#2D3031"/>
<path transform="translate(878,1202)" d="m0 0c2.48 0.99 2.48 0.99 5 2v2c-5.54 3.77-9.34 4.54-16 4l1-3h9l-1-3h2v-2z" fill="#2F3235"/>
<path transform="translate(760,1323)" d="m0 0 4 2 1-2c-0.38 1.94-0.38 1.94-1 4-0.99 0.49-0.99 0.49-2 1l-1 2c-2.06 0.62-2.06 0.62-4 1v3h-5v-2h2v-3l4-1-2-3 2-1 2 1v-2z" fill="#2D3031"/>
<path transform="translate(561,1322)" d="m0 0c4 0 4 0 5.75 1.5 0.62 0.74 0.62 0.74 1.25 1.5l1-2c-0.57 2.87-0.86 3.86-3 6-3.12 0.12-3.12 0.12-6 0v-3l-2-1c0.99-0.33 1.98-0.66 3-1v-2z" fill="#2D3031"/>
<path transform="translate(850,1045)" d="m0 0c9.42-0.16 9.42-0.16 13 1l2 3c-2.4 1.51-3.63 2.04-6.5 1.75-4.2-1.26-6.02-2.02-8.5-5.75z" fill="#2D3031"/>
<path transform="translate(672,1326)" d="m0 0c1.62-0.03 3.25-0.05 4.88-0.06 0.9-0.01 1.8-0.03 2.74-0.04 2.38 0.1 2.38 0.1 4.38 1.1l-1 4c-3.31 1.1-5.7 1.22-9 0-1.31-2.56-1.31-2.56-2-5z" fill="#2F3235"/>
<path transform="translate(1022,1306)" d="m0 0h46v1h-46v-1z" fill="#2D3031"/>
<path transform="translate(767,1063)" d="m0 0c1.49 0.99 1.49 0.99 3 2h2v6h-2l-1 5c-0.99-0.33-1.98-0.66-3-1-0.03-1.44-0.05-2.87-0.06-4.31-0.01-0.8-0.03-1.6-0.04-2.43 0.1-2.26 0.1-2.26 1.1-5.26z" fill="#2D3031"/>
<path transform="translate(1043,1119)" d="m0 0h7c3.08 5.42 3.08 5.42 2.69 8.38-0.23 0.53-0.46 1.07-0.69 1.62-1.5-1.38-1.5-1.38-3-3v-2l-4-1v-2h-2v-2z" fill="#2F3235"/>
<path transform="translate(1208,681)" d="m0 0h1v43h-1v-43z" fill="#000002"/>
<path transform="translate(837,1207)" d="m0 0h6c-0.99 0.33-1.98 0.66-3 1-0.91 2.48-1 4.34-1 7h-11l-1-4c1.11 0.25 1.11 0.25 2.25 0.5 2.94 0.62 2.94 0.62 6.75 0.5l1-5z" fill="#303336"/>
<path transform="translate(617,1175)" d="m0 0 2 2c2.11-0.32 2.11-0.32 4-1l2 5c-0.95 0.12-1.9 0.25-2.88 0.38-3.21 0.34-3.21 0.34-5.12 2.62l-2-7 2-2z" fill="#2F3235"/>
<path transform="translate(455,394)" d="m0 0c1.34 4.01 0.68 6.52-1.06 10.3-0.47 0.84-0.47 0.84-0.94 1.69l-1-3-2-1c-0.37-4.52-0.37-4.52 1.38-6.81 1.62-1.19 1.62-1.19 3.62-1.19z" fill="#2D3031"/>
<path transform="translate(966,1056)" d="m0 0h4v6h6v1h-6l-1 2-2-1c-2-0.36-4-0.69-6-1v-1c1.98-0.33 3.96-0.66 6-1l-2-4 1-1z" fill="#303336"/>
<path transform="translate(442,645)" d="m0 0 2 1c0.03 2.1 0.05 4.21 0.06 6.31 0.01 1.17 0.03 2.35 0.04 3.55-0.1 3.14-0.1 3.14-1.1 6.14h-2c-0.03-2.65-0.05-5.29-0.06-7.94-0.01-0.75-0.02-1.51-0.03-2.28-0.01-1.93 0.04-3.86 0.09-5.78l1-1z" fill="#2D3031"/>
<path transform="translate(574,1330)" d="m0 0-1 4c-1.81-0.11-3.63-0.24-5.44-0.38-1.51-0.1-1.51-0.1-3.06-0.21-0.82-0.13-1.65-0.27-2.5-0.41l-1-2c1.6-0.36 3.21-0.72 4.81-1.06 0.9-0.2 1.79-0.4 2.71-0.6 2.48-0.34 2.48-0.34 5.48 0.66z" fill="#2D3031"/>
<path transform="translate(824,1316)" d="m0 0 2 1v2h11v2h-17v-2h2v-2l2-1z" fill="#2D3031"/>
<path transform="translate(974,1137)" d="m0 0c1.98 0.49 1.98 0.49 4 1 0.12 3.38 0.12 3.38 0 7l-2 2h-2c-1.12-6.62-1.12-6.62 0-10z" fill="#2F3235"/>
<path transform="translate(433,834)" d="m0 0 4 2v9l-2-1-2 4v-14z" fill="#2D3031"/>
<path transform="translate(1196,813)" d="m0 0h3c0 11 0 11-1 14-0.99 0.5-0.99 0.5-2 1v-15z" fill="#2D3031"/>
<path transform="translate(941,438)" d="m0 0c1.07 3.22 0.8 3.9 0 7l1 2c-2.97-0.5-2.97-0.5-6-1-0.19-2.88-0.19-2.88 0-6 3-2 3-2 5-2z" fill="#2D3031"/>
<path transform="translate(770,1184)" d="m0 0h3l2 7c-0.99 0.49-0.99 0.49-2 1l-1 2c-1.56-1.62-1.56-1.62-3-4 0.31-3.25 0.31-3.25 1-6z" fill="#2D3031"/>
<path transform="translate(600,1320)" d="m0 0c1.33 0.67 2.67 1.33 4 2 1.08 0.49 1.08 0.49 2.19 1 1.81 1 1.81 1 2.81 3h-4l1 3h-2l-1-2c-0.99-0.33-1.98-0.66-3-1v-6z" fill="#2D3031"/>
<path transform="translate(953,1163)" d="m0 0c4.88 3.75 4.88 3.75 6 6h1v5c-0.9-0.71-0.9-0.71-1.81-1.44-2.19-1.72-2.19-1.72-5.19-2.56-1.18-2.94-1.03-3.9 0-7z" fill="#303336"/>
<path transform="translate(441 1e3)" d="m0 0c3.23 0.56 4.98 1.37 7 4v3c-0.99-0.33-1.98-0.66-3-1-2.14 0.39-2.14 0.39-4 1v-7z" fill="#2D3031"/>
<path transform="translate(454,1181)" d="m0 0c0.89 3.3 1.46 6.62 2 10l-4 3c-0.8-3.29-1.1-4.71 0-8v-3h2v-2z" fill="#2D3031"/>
<path transform="translate(784,1050)" d="m0 0h2l2 2c2.11-0.32 2.11-0.32 4-1l1 4c-4.7 1.3-7.53 0.93-12-1l2-2 1-2z" fill="#303336"/>
<path transform="translate(1038,1337)" d="m0 0c3 1 3 1 4 2l3 2v2c-1.46 0.19-2.92 0.38-4.38 0.56-0.81 0.11-1.62 0.21-2.46 0.32-2.16 0.12-2.16 0.12-4.16-0.88v-2l4-1v-3z" fill="#2D3031"/>
<path transform="translate(840,1189)" d="m0 0 1 3-10 1v-2l-2-1c3.67-1.18 7.17-1.07 11-1z" fill="#2A2D2E"/>
<path transform="translate(692,1135)" d="m0 0 3 3c-0.99 0.49-0.99 0.49-2 1v3h-9c1.49-2.99 4.08-3.54 7-5l1-2z" fill="#2D3031"/>
<path transform="translate(1177,1292)" d="m0 0h5l1 2c0.98 1.02 1.98 2.02 3 3l-8 1-2-3 1-3z" fill="#2D3031"/>
<path transform="translate(939,374)" d="m0 0 4 1v2h-2l1 6h-3v-2c-0.99-0.33-1.98-0.66-3-1 0.99-0.33 1.98-0.66 3-1v-5z" fill="#2D3031"/>
<path transform="translate(963,1325)" d="m0 0c2 3 2 3 3 5l3-2c-0.38 1.94-0.38 1.94-1 4-0.99 0.49-0.99 0.49-2 1-4.69-2.18-4.69-2.18-5.81-5.19-0.06-0.6-0.13-1.19-0.19-1.81 0.99-0.33 1.98-0.66 3-1z" fill="#2F3235"/>
<path transform="translate(453,1157)" d="m0 0 2 1c-0.19 0.56-0.37 1.11-0.56 1.69-0.61 2.36-0.61 2.36 0.18 4.87 0.19 1.21 0.19 1.21 0.38 2.44-1.48 1.65-1.48 1.65-3 3-0.22-1.6-0.43-3.21-0.62-4.81-0.12-0.9-0.24-1.79-0.36-2.71-0.02-2.48-0.02-2.48 1.98-5.48z" fill="#2D3031"/>
<path transform="translate(526,314)" d="m0 0h2l-3 9-5-1 3-6h3v-2z" fill="#2E3132"/>
<path transform="translate(793,1316)" d="m0 0 3 2c-0.99 0.49-0.99 0.49-2 1l1 2h-12c2.68-2.68 5.39-3.01 9-4l1-1z" fill="#2D3031"/>
<path transform="translate(776,1179)" d="m0 0c1.88 0.19 1.88 0.19 4 1 1.25 2.56 1.25 2.56 2 5h-3l-1 3c-1.86-3.13-2.2-5.37-2-9z" fill="#2D3031"/>
<path transform="translate(969,1155)" d="m0 0 4 4c-0.99 0.49-0.99 0.49-2 1-1.13 2.02-1.13 2.02-2 4l-3-2c0.75-4.75 0.75-4.75 3-7z" fill="#303336"/>
<path transform="translate(940,475)" d="m0 0 2 2c-0.3 3.8-1.42 6.21-4 9h-2c-0.75-1.75-0.75-1.75-1-4 1.88-2.06 1.88-2.06 4-4l1-3z" fill="#2D3031"/>
<path transform="translate(917,371)" d="m0 0v5l2 1h-2v6c-2.6-2.71-2.99-3.89-3.19-7.75 0.06-1.07 0.13-2.14 0.19-3.25 2-1 2-1 3-1z" fill="#2D3031"/>
<path transform="translate(544 337)" d="m0 0c1.51 0.02 1.51 0.02 3.06 0.04 1.01 0 2.02 0.01 3.06 0.02 1.18 0.02 1.18 0.02 2.38 0.04l1 2c-3.03 1.51-5.67 1.17-9 1-2.44-1-2.44-1-4-2 1-1 1-1 3.5-1.1z" fill="#303336"/>
<path transform="translate(904,1323)" d="m0 0c2.97 0.49 2.97 0.49 6 1v3l-4 1v-2l-4 2v-2h-2v-2l4 1v-2z" fill="#2D3031"/>
<path transform="translate(919,526)" d="m0 0c0.99 0.33 1.98 0.66 3 1-0.61 2.96-1.25 4.38-3 7l2 1v2c-0.99 0.33-1.98 0.66-3 1-1.61-3.21-1.06-6.44-1-10h2v-2z" fill="#2D3031"/>
<path transform="translate(663,320)" d="m0 0 15 1c-3.97 1.98-6.62 2.69-11 3-2.44-0.94-2.44-0.94-4-2v-2z" fill="#303336"/>
<path transform="translate(846,1197)" d="m0 0 1 2h2v4c-0.99 0.33-1.98 0.66-3 1l-3-2 1-2-2-1 4-2z" fill="#2D3031"/>
<path transform="translate(808,1045)" d="m0 0c2.84-0.23 4.46-0.36 6.88 1.25 1.12 1.75 1.12 1.75 0.81 3.94-0.23 0.6-0.46 1.19-0.69 1.81h-2v-3l-5-1v-3z" fill="#303336"/>
<path transform="translate(431,1254)" d="m0 0h1c0.6 7.02 1.14 14 1 21h-3l1-21z" fill="#303336"/>
<path transform="translate(960,1058)" d="m0 0c6.75 0.75 6.75 0.75 9 3-2.96 1.48-5.74 1.06-9 1v-4z" fill="#2D3031"/>
<path transform="translate(997,1306)" d="m0 0h24v1h-24v-1z" fill="#2D3031"/>
<path transform="translate(1208,729)" d="m0 0h1v11h-1v-11z" fill="#000002"/>
<path transform="translate(1132,598)" d="m0 0 4 1z" fill="#000002"/>
<path transform="translate(882,342)" d="m0 0 4 1z" fill="#000002"/>
<path transform="translate(510,341)" d="m0 0 4 1z" fill="#000002"/>
<path transform="translate(860,341)" d="m0 0c3 1 3 1 3 1z" fill="#000002"/>
<path transform="translate(684,1072)" d="m0 0 2 1z" fill="#000002"/>
<path transform="translate(818,804)" d="m0 0 2 1z" fill="#000002"/>
<path transform="translate(889,343)" d="m0 0 2 1z" fill="#000002"/>
</svg>
